<svg width="113" height="34" viewBox="0 0 113 34" fill="none" xmlns="http://www.w3.org/2000/svg">
<g filter="url(#filter0_d_1896_4249)">
<rect width="113" height="32" rx="16" fill="white"/>
<g clip-path="url(#clip0_1896_4249)">
<path d="M26.0001 7.66602C21.4001 7.66602 17.6667 11.3993 17.6667 15.9993C17.6667 20.5993 21.4001 24.3327 26.0001 24.3327C30.6001 24.3327 34.3334 20.5993 34.3334 15.9993C34.3334 11.3993 30.6001 7.66602 26.0001 7.66602ZM26.0001 22.666C22.3251 22.666 19.3334 19.6743 19.3334 15.9993C19.3334 12.3243 22.3251 9.33268 26.0001 9.33268C29.6751 9.33268 32.6667 12.3243 32.6667 15.9993C32.6667 19.6743 29.6751 22.666 26.0001 22.666ZM29.8251 12.316L24.3334 17.8077L22.1751 15.6577L21.0001 16.8327L24.3334 20.166L31.0001 13.4993L29.8251 12.316Z" fill="#25AF8E"/>
</g>
<path d="M49.3291 12.749L46.6221 21H44.4414L48.1396 11.0469H49.5273L49.3291 12.749ZM51.5781 21L48.8643 12.749L48.6455 11.0469H50.0469L53.7656 21H51.5781ZM51.4551 17.2949V18.9014H46.1982V17.2949H51.4551ZM56.3154 15.0254V23.8438H54.3467V13.6035H56.1719L56.3154 15.0254ZM60.998 17.2197V17.3633C60.998 17.901 60.9342 18.4001 60.8066 18.8604C60.6836 19.3206 60.5013 19.7217 60.2598 20.0635C60.0182 20.4007 59.7174 20.665 59.3574 20.8564C59.002 21.0433 58.5918 21.1367 58.127 21.1367C57.6758 21.1367 57.2839 21.0456 56.9512 20.8633C56.6185 20.681 56.3382 20.4258 56.1104 20.0977C55.887 19.765 55.707 19.3799 55.5703 18.9424C55.4336 18.5049 55.3288 18.0355 55.2559 17.5342V17.1582C55.3288 16.6204 55.4336 16.1283 55.5703 15.6816C55.707 15.2305 55.887 14.8408 56.1104 14.5127C56.3382 14.18 56.6162 13.9225 56.9443 13.7402C57.277 13.5579 57.6667 13.4668 58.1133 13.4668C58.5827 13.4668 58.9951 13.5557 59.3506 13.7334C59.7106 13.9111 60.0114 14.1663 60.2529 14.499C60.499 14.8317 60.6836 15.2282 60.8066 15.6885C60.9342 16.1488 60.998 16.6592 60.998 17.2197ZM59.0225 17.3633V17.2197C59.0225 16.9053 58.9951 16.6159 58.9404 16.3516C58.8903 16.0827 58.8083 15.848 58.6943 15.6475C58.585 15.4469 58.4391 15.292 58.2568 15.1826C58.0791 15.0687 57.8626 15.0117 57.6074 15.0117C57.3385 15.0117 57.1084 15.055 56.917 15.1416C56.7301 15.2282 56.5775 15.3535 56.459 15.5176C56.3405 15.6816 56.2516 15.8776 56.1924 16.1055C56.1331 16.3333 56.0967 16.5908 56.083 16.8779V17.8281C56.1058 18.1654 56.1696 18.4684 56.2744 18.7373C56.3792 19.0016 56.541 19.2113 56.7598 19.3662C56.9785 19.5212 57.2656 19.5986 57.6211 19.5986C57.8809 19.5986 58.0996 19.5417 58.2773 19.4277C58.4551 19.3092 58.5986 19.1475 58.708 18.9424C58.8219 18.7373 58.9017 18.5003 58.9473 18.2314C58.9974 17.9626 59.0225 17.6732 59.0225 17.3633ZM64.1904 15.0254V23.8438H62.2217V13.6035H64.0469L64.1904 15.0254ZM68.873 17.2197V17.3633C68.873 17.901 68.8092 18.4001 68.6816 18.8604C68.5586 19.3206 68.3763 19.7217 68.1348 20.0635C67.8932 20.4007 67.5924 20.665 67.2324 20.8564C66.877 21.0433 66.4668 21.1367 66.002 21.1367C65.5508 21.1367 65.1589 21.0456 64.8262 20.8633C64.4935 20.681 64.2132 20.4258 63.9854 20.0977C63.762 19.765 63.582 19.3799 63.4453 18.9424C63.3086 18.5049 63.2038 18.0355 63.1309 17.5342V17.1582C63.2038 16.6204 63.3086 16.1283 63.4453 15.6816C63.582 15.2305 63.762 14.8408 63.9854 14.5127C64.2132 14.18 64.4912 13.9225 64.8193 13.7402C65.152 13.5579 65.5417 13.4668 65.9883 13.4668C66.4577 13.4668 66.8701 13.5557 67.2256 13.7334C67.5856 13.9111 67.8864 14.1663 68.1279 14.499C68.374 14.8317 68.5586 15.2282 68.6816 15.6885C68.8092 16.1488 68.873 16.6592 68.873 17.2197ZM66.8975 17.3633V17.2197C66.8975 16.9053 66.8701 16.6159 66.8154 16.3516C66.7653 16.0827 66.6833 15.848 66.5693 15.6475C66.46 15.4469 66.3141 15.292 66.1318 15.1826C65.9541 15.0687 65.7376 15.0117 65.4824 15.0117C65.2135 15.0117 64.9834 15.055 64.792 15.1416C64.6051 15.2282 64.4525 15.3535 64.334 15.5176C64.2155 15.6816 64.1266 15.8776 64.0674 16.1055C64.0081 16.3333 63.9717 16.5908 63.958 16.8779V17.8281C63.9808 18.1654 64.0446 18.4684 64.1494 18.7373C64.2542 19.0016 64.416 19.2113 64.6348 19.3662C64.8535 19.5212 65.1406 19.5986 65.4961 19.5986C65.7559 19.5986 65.9746 19.5417 66.1523 19.4277C66.3301 19.3092 66.4736 19.1475 66.583 18.9424C66.6969 18.7373 66.7767 18.5003 66.8223 18.2314C66.8724 17.9626 66.8975 17.6732 66.8975 17.3633ZM72.0654 15.2168V21H70.0967V13.6035H71.9492L72.0654 15.2168ZM74.2939 13.5557L74.2598 15.3809C74.1641 15.3672 74.0479 15.3558 73.9111 15.3467C73.779 15.333 73.6582 15.3262 73.5488 15.3262C73.2708 15.3262 73.0293 15.3626 72.8242 15.4355C72.6237 15.5039 72.4551 15.6064 72.3184 15.7432C72.1862 15.8799 72.0859 16.0462 72.0176 16.2422C71.9538 16.4382 71.9173 16.6615 71.9082 16.9121L71.5117 16.7891C71.5117 16.3105 71.5596 15.8708 71.6553 15.4697C71.751 15.0641 71.89 14.7109 72.0723 14.4102C72.2591 14.1094 72.487 13.877 72.7559 13.7129C73.0247 13.5488 73.3324 13.4668 73.6787 13.4668C73.7881 13.4668 73.8997 13.4759 74.0137 13.4941C74.1276 13.5078 74.221 13.5283 74.2939 13.5557ZM74.7041 17.377V17.2334C74.7041 16.6911 74.7816 16.1921 74.9365 15.7363C75.0915 15.276 75.3171 14.8773 75.6133 14.54C75.9095 14.2028 76.2741 13.9408 76.707 13.7539C77.14 13.5625 77.6367 13.4668 78.1973 13.4668C78.7578 13.4668 79.2568 13.5625 79.6943 13.7539C80.1318 13.9408 80.4987 14.2028 80.7949 14.54C81.0957 14.8773 81.3236 15.276 81.4785 15.7363C81.6335 16.1921 81.7109 16.6911 81.7109 17.2334V17.377C81.7109 17.9147 81.6335 18.4137 81.4785 18.874C81.3236 19.3298 81.0957 19.7285 80.7949 20.0703C80.4987 20.4076 80.1341 20.6696 79.7012 20.8564C79.2682 21.0433 78.7715 21.1367 78.2109 21.1367C77.6504 21.1367 77.1514 21.0433 76.7139 20.8564C76.2809 20.6696 75.9141 20.4076 75.6133 20.0703C75.3171 19.7285 75.0915 19.3298 74.9365 18.874C74.7816 18.4137 74.7041 17.9147 74.7041 17.377ZM76.6729 17.2334V17.377C76.6729 17.6868 76.7002 17.9762 76.7549 18.2451C76.8096 18.514 76.8962 18.751 77.0146 18.9561C77.1377 19.1566 77.2972 19.3138 77.4932 19.4277C77.6891 19.5417 77.9284 19.5986 78.2109 19.5986C78.4844 19.5986 78.7191 19.5417 78.915 19.4277C79.111 19.3138 79.2682 19.1566 79.3867 18.9561C79.5052 18.751 79.5918 18.514 79.6465 18.2451C79.7057 17.9762 79.7354 17.6868 79.7354 17.377V17.2334C79.7354 16.9326 79.7057 16.6501 79.6465 16.3857C79.5918 16.1169 79.5029 15.8799 79.3799 15.6748C79.2614 15.4652 79.1042 15.3011 78.9082 15.1826C78.7122 15.0641 78.4753 15.0049 78.1973 15.0049C77.9193 15.0049 77.6823 15.0641 77.4863 15.1826C77.2949 15.3011 77.1377 15.4652 77.0146 15.6748C76.8962 15.8799 76.8096 16.1169 76.7549 16.3857C76.7002 16.6501 76.6729 16.9326 76.6729 17.2334ZM85.3271 19.5645L86.9678 13.6035H89.0254L86.5303 21H85.2861L85.3271 19.5645ZM84.1992 13.6035L85.8467 19.5713L85.8809 21H84.6299L82.1348 13.6035H84.1992ZM93.2158 21.1367C92.6416 21.1367 92.1266 21.0456 91.6709 20.8633C91.2152 20.6764 90.8278 20.4189 90.5088 20.0908C90.1943 19.7627 89.9528 19.3822 89.7842 18.9492C89.6156 18.5117 89.5312 18.0469 89.5312 17.5547V17.2812C89.5312 16.7207 89.611 16.208 89.7705 15.7432C89.93 15.2783 90.1579 14.875 90.4541 14.5332C90.7549 14.1914 91.1195 13.9294 91.5479 13.7471C91.9762 13.5602 92.4593 13.4668 92.9971 13.4668C93.5212 13.4668 93.986 13.5534 94.3916 13.7266C94.7972 13.8997 95.1367 14.1458 95.4102 14.4648C95.6882 14.7839 95.8978 15.1667 96.0391 15.6133C96.1803 16.0553 96.251 16.5475 96.251 17.0898V17.9102H90.3721V16.5977H94.3164V16.4473C94.3164 16.1738 94.2663 15.93 94.166 15.7158C94.0703 15.4971 93.9245 15.3239 93.7285 15.1963C93.5326 15.0687 93.2819 15.0049 92.9766 15.0049C92.7168 15.0049 92.4935 15.0618 92.3066 15.1758C92.1198 15.2897 91.9671 15.4492 91.8486 15.6543C91.7347 15.8594 91.6481 16.1009 91.5889 16.3789C91.5342 16.6523 91.5068 16.9531 91.5068 17.2812V17.5547C91.5068 17.8509 91.5479 18.1243 91.6299 18.375C91.7165 18.6257 91.8372 18.8421 91.9922 19.0244C92.1517 19.2067 92.3431 19.348 92.5664 19.4482C92.7943 19.5485 93.0518 19.5986 93.3389 19.5986C93.6943 19.5986 94.0247 19.5303 94.3301 19.3936C94.64 19.2523 94.9066 19.0404 95.1299 18.7578L96.0869 19.7969C95.932 20.0202 95.7201 20.2344 95.4512 20.4395C95.1868 20.6445 94.8678 20.8132 94.4941 20.9453C94.1204 21.0729 93.6943 21.1367 93.2158 21.1367Z" fill="#25AF8E"/>
</g>
<defs>
<filter id="filter0_d_1896_4249" x="0" y="0" width="113" height="34" filterUnits="userSpaceOnUse" color-interpolation-filters="sRGB">
<feFlood flood-opacity="0" result="BackgroundImageFix"/>
<feColorMatrix in="SourceAlpha" type="matrix" values="0 0 0 0 0 0 0 0 0 0 0 0 0 0 0 0 0 0 127 0" result="hardAlpha"/>
<feOffset dy="2"/>
<feColorMatrix type="matrix" values="0 0 0 0 0 0 0 0 0 0 0 0 0 0 0 0 0 0 0.016 0"/>
<feBlend mode="normal" in2="BackgroundImageFix" result="effect1_dropShadow_1896_4249"/>
<feBlend mode="normal" in="SourceGraphic" in2="effect1_dropShadow_1896_4249" result="shape"/>
</filter>
<clipPath id="clip0_1896_4249">
<rect width="20" height="20" fill="white" transform="translate(16 6)"/>
</clipPath>
</defs>
</svg>
