<svg width="133" height="34" viewBox="0 0 133 34" fill="none" xmlns="http://www.w3.org/2000/svg">
<g filter="url(#filter0_d_2206_3847)">
<rect width="133" height="32" rx="16" fill="white"/>
<g clip-path="url(#clip0_2206_3847)">
<path d="M29.3333 13.5H27.2083V11H24.7917V13.5H22.6667L26 16.8333L29.3333 13.5ZM31.8333 8.5H20.1583C19.2333 8.5 18.5 9.25 18.5 10.1667V21.8333C18.5 22.75 19.2333 23.5 20.1583 23.5H31.8333C32.75 23.5 33.5 22.75 33.5 21.8333V10.1667C33.5 9.25 32.75 8.5 31.8333 8.5ZM31.8333 21.8333H20.1667V19.3333H23.1333C23.7083 20.325 24.775 21 26.0083 21C27.2417 21 28.3 20.325 28.8833 19.3333H31.8333V21.8333ZM31.8333 17.6667H27.675C27.675 18.5833 26.925 19.3333 26.0083 19.3333C25.0917 19.3333 24.3417 18.5833 24.3417 17.6667H20.1667L20.1583 10.1667H31.8333V17.6667Z" fill="#14448B"/>
</g>
<path d="M49.123 12.749L46.416 21H44.2354L47.9336 11.0469H49.3213L49.123 12.749ZM51.3721 21L48.6582 12.749L48.4395 11.0469H49.8408L53.5596 21H51.3721ZM51.249 17.2949V18.9014H45.9922V17.2949H51.249ZM58.3584 18.9561C58.3584 18.8148 58.3174 18.6872 58.2354 18.5732C58.1533 18.4593 58.0007 18.3545 57.7773 18.2588C57.5586 18.1585 57.2419 18.0674 56.8271 17.9854C56.4535 17.9033 56.1048 17.8008 55.7812 17.6777C55.4622 17.5501 55.1842 17.3975 54.9473 17.2197C54.7148 17.042 54.5326 16.8324 54.4004 16.5908C54.2682 16.3447 54.2021 16.0645 54.2021 15.75C54.2021 15.4401 54.2682 15.1484 54.4004 14.875C54.5371 14.6016 54.7308 14.36 54.9814 14.1504C55.2367 13.9362 55.5465 13.7699 55.9111 13.6514C56.2803 13.5283 56.695 13.4668 57.1553 13.4668C57.7979 13.4668 58.3493 13.5693 58.8096 13.7744C59.2744 13.9795 59.6299 14.262 59.876 14.6221C60.1266 14.9775 60.252 15.3831 60.252 15.8389H58.2832C58.2832 15.6475 58.2422 15.4766 58.1602 15.3262C58.0827 15.1712 57.9596 15.0505 57.791 14.9639C57.627 14.8727 57.4128 14.8271 57.1484 14.8271C56.9297 14.8271 56.7406 14.8659 56.5811 14.9434C56.4215 15.0163 56.2985 15.1165 56.2119 15.2441C56.1299 15.3672 56.0889 15.5039 56.0889 15.6543C56.0889 15.7682 56.1117 15.8708 56.1572 15.9619C56.2074 16.0485 56.2871 16.1283 56.3965 16.2012C56.5059 16.2741 56.6471 16.3424 56.8203 16.4062C56.998 16.4655 57.2168 16.5202 57.4766 16.5703C58.0098 16.6797 58.486 16.8232 58.9053 17.001C59.3245 17.1742 59.6572 17.4111 59.9033 17.7119C60.1494 18.0081 60.2725 18.3978 60.2725 18.8809C60.2725 19.209 60.1995 19.5098 60.0537 19.7832C59.9079 20.0566 59.6982 20.2959 59.4248 20.501C59.1514 20.7015 58.8232 20.8587 58.4404 20.9727C58.0622 21.082 57.6361 21.1367 57.1621 21.1367C56.474 21.1367 55.8906 21.0137 55.4121 20.7676C54.9382 20.5215 54.5781 20.2093 54.332 19.8311C54.0905 19.4482 53.9697 19.0563 53.9697 18.6553H55.8359C55.8451 18.9242 55.9134 19.1406 56.041 19.3047C56.1732 19.4688 56.3395 19.5872 56.54 19.6602C56.7451 19.7331 56.9661 19.7695 57.2031 19.7695C57.4583 19.7695 57.6702 19.7354 57.8389 19.667C58.0075 19.5941 58.1351 19.4984 58.2217 19.3799C58.3128 19.2568 58.3584 19.1156 58.3584 18.9561ZM65.5498 18.9561C65.5498 18.8148 65.5088 18.6872 65.4268 18.5732C65.3447 18.4593 65.1921 18.3545 64.9688 18.2588C64.75 18.1585 64.4333 18.0674 64.0186 17.9854C63.6449 17.9033 63.2962 17.8008 62.9727 17.6777C62.6536 17.5501 62.3757 17.3975 62.1387 17.2197C61.9062 17.042 61.724 16.8324 61.5918 16.5908C61.4596 16.3447 61.3936 16.0645 61.3936 15.75C61.3936 15.4401 61.4596 15.1484 61.5918 14.875C61.7285 14.6016 61.9222 14.36 62.1729 14.1504C62.4281 13.9362 62.738 13.7699 63.1025 13.6514C63.4717 13.5283 63.8864 13.4668 64.3467 13.4668C64.9893 13.4668 65.5407 13.5693 66.001 13.7744C66.4658 13.9795 66.8213 14.262 67.0674 14.6221C67.318 14.9775 67.4434 15.3831 67.4434 15.8389H65.4746C65.4746 15.6475 65.4336 15.4766 65.3516 15.3262C65.2741 15.1712 65.151 15.0505 64.9824 14.9639C64.8184 14.8727 64.6042 14.8271 64.3398 14.8271C64.1211 14.8271 63.932 14.8659 63.7725 14.9434C63.613 15.0163 63.4899 15.1165 63.4033 15.2441C63.3213 15.3672 63.2803 15.5039 63.2803 15.6543C63.2803 15.7682 63.3031 15.8708 63.3486 15.9619C63.3988 16.0485 63.4785 16.1283 63.5879 16.2012C63.6973 16.2741 63.8385 16.3424 64.0117 16.4062C64.1895 16.4655 64.4082 16.5202 64.668 16.5703C65.2012 16.6797 65.6774 16.8232 66.0967 17.001C66.516 17.1742 66.8486 17.4111 67.0947 17.7119C67.3408 18.0081 67.4639 18.3978 67.4639 18.8809C67.4639 19.209 67.391 19.5098 67.2451 19.7832C67.0993 20.0566 66.8896 20.2959 66.6162 20.501C66.3428 20.7015 66.0146 20.8587 65.6318 20.9727C65.2536 21.082 64.8275 21.1367 64.3535 21.1367C63.6654 21.1367 63.082 21.0137 62.6035 20.7676C62.1296 20.5215 61.7695 20.2093 61.5234 19.8311C61.2819 19.4482 61.1611 19.0563 61.1611 18.6553H63.0273C63.0365 18.9242 63.1048 19.1406 63.2324 19.3047C63.3646 19.4688 63.5309 19.5872 63.7314 19.6602C63.9365 19.7331 64.1576 19.7695 64.3945 19.7695C64.6497 19.7695 64.8617 19.7354 65.0303 19.667C65.1989 19.5941 65.3265 19.4984 65.4131 19.3799C65.5042 19.2568 65.5498 19.1156 65.5498 18.9561ZM70.8203 13.6035V21H68.8447V13.6035H70.8203ZM68.7217 11.6758C68.7217 11.3887 68.8219 11.1517 69.0225 10.9648C69.223 10.778 69.4919 10.6846 69.8291 10.6846C70.1618 10.6846 70.4284 10.778 70.6289 10.9648C70.834 11.1517 70.9365 11.3887 70.9365 11.6758C70.9365 11.9629 70.834 12.1999 70.6289 12.3867C70.4284 12.5736 70.1618 12.667 69.8291 12.667C69.4919 12.667 69.223 12.5736 69.0225 12.3867C68.8219 12.1999 68.7217 11.9629 68.7217 11.6758ZM77.1299 13.6035H78.9141V20.7539C78.9141 21.4284 78.7637 22.0003 78.4629 22.4697C78.1667 22.9437 77.752 23.3014 77.2188 23.543C76.6855 23.7891 76.0658 23.9121 75.3594 23.9121C75.0495 23.9121 74.7214 23.8711 74.375 23.7891C74.0332 23.707 73.7051 23.5794 73.3906 23.4062C73.0807 23.2331 72.821 23.0143 72.6113 22.75L73.4795 21.5879C73.7074 21.8522 73.9717 22.0573 74.2725 22.2031C74.5732 22.3535 74.9059 22.4287 75.2705 22.4287C75.626 22.4287 75.9268 22.3626 76.1729 22.2305C76.4189 22.1029 76.6081 21.9137 76.7402 21.6631C76.8724 21.417 76.9385 21.1185 76.9385 20.7676V15.3125L77.1299 13.6035ZM72.1533 17.3906V17.2471C72.1533 16.682 72.2217 16.1693 72.3584 15.709C72.4997 15.2441 72.6979 14.8454 72.9531 14.5127C73.2129 14.18 73.5273 13.9225 73.8965 13.7402C74.2656 13.5579 74.6826 13.4668 75.1475 13.4668C75.6396 13.4668 76.0521 13.5579 76.3848 13.7402C76.7174 13.9225 76.9909 14.1823 77.2051 14.5195C77.4193 14.8522 77.5856 15.2464 77.7041 15.7021C77.8271 16.1533 77.9229 16.6478 77.9912 17.1855V17.5C77.9229 18.015 77.8203 18.4935 77.6836 18.9355C77.5469 19.3776 77.3669 19.765 77.1436 20.0977C76.9202 20.4258 76.6423 20.681 76.3096 20.8633C75.9814 21.0456 75.5895 21.1367 75.1338 21.1367C74.6781 21.1367 74.2656 21.0433 73.8965 20.8564C73.5319 20.6696 73.2197 20.4076 72.96 20.0703C72.7002 19.7331 72.4997 19.3366 72.3584 18.8809C72.2217 18.4251 72.1533 17.9284 72.1533 17.3906ZM74.1221 17.2471V17.3906C74.1221 17.696 74.1517 17.9808 74.2109 18.2451C74.2702 18.5094 74.3613 18.7441 74.4844 18.9492C74.612 19.1497 74.7692 19.307 74.9561 19.4209C75.1475 19.5303 75.373 19.585 75.6328 19.585C75.9928 19.585 76.2868 19.5098 76.5146 19.3594C76.7425 19.2044 76.9134 18.9925 77.0273 18.7236C77.1413 18.4548 77.2074 18.1449 77.2256 17.7939V16.8984C77.2165 16.6113 77.1777 16.3538 77.1094 16.126C77.041 15.8936 76.9453 15.6953 76.8223 15.5312C76.6992 15.3672 76.5397 15.2396 76.3438 15.1484C76.1478 15.0573 75.9154 15.0117 75.6465 15.0117C75.3867 15.0117 75.1611 15.071 74.9697 15.1895C74.7829 15.3034 74.6257 15.4606 74.498 15.6611C74.375 15.8617 74.2816 16.0986 74.2178 16.3721C74.154 16.641 74.1221 16.9326 74.1221 17.2471ZM82.373 15.1826V21H80.4043V13.6035H82.25L82.373 15.1826ZM82.0859 17.042H81.5527C81.5527 16.4951 81.6234 16.0029 81.7646 15.5654C81.9059 15.1234 82.1042 14.7474 82.3594 14.4375C82.6146 14.123 82.9176 13.8838 83.2686 13.7197C83.624 13.5511 84.0205 13.4668 84.458 13.4668C84.8044 13.4668 85.1211 13.5169 85.4082 13.6172C85.6953 13.7174 85.9414 13.877 86.1465 14.0957C86.3561 14.3145 86.5156 14.6038 86.625 14.9639C86.7389 15.3239 86.7959 15.7637 86.7959 16.2832V21H84.8135V16.2764C84.8135 15.9482 84.7679 15.693 84.6768 15.5107C84.5856 15.3285 84.4512 15.2008 84.2734 15.1279C84.1003 15.0505 83.8861 15.0117 83.6309 15.0117C83.3665 15.0117 83.1364 15.0641 82.9404 15.1689C82.749 15.2738 82.5895 15.4196 82.4619 15.6064C82.3389 15.7887 82.2454 16.0029 82.1816 16.249C82.1178 16.4951 82.0859 16.7594 82.0859 17.042ZM95.7783 17.4521H93.2422V15.8525H95.7783C96.1702 15.8525 96.4893 15.7887 96.7354 15.6611C96.9814 15.529 97.1615 15.3467 97.2754 15.1143C97.3893 14.8818 97.4463 14.6198 97.4463 14.3281C97.4463 14.0319 97.3893 13.7562 97.2754 13.501C97.1615 13.2458 96.9814 13.0407 96.7354 12.8857C96.4893 12.7308 96.1702 12.6533 95.7783 12.6533H93.9531V21H91.9023V11.0469H95.7783C96.5576 11.0469 97.2253 11.1882 97.7812 11.4707C98.3418 11.7487 98.7702 12.1338 99.0664 12.626C99.3626 13.1182 99.5107 13.681 99.5107 14.3145C99.5107 14.957 99.3626 15.513 99.0664 15.9824C98.7702 16.4518 98.3418 16.8141 97.7812 17.0693C97.2253 17.3245 96.5576 17.4521 95.7783 17.4521ZM107.324 19.4004V21H102.313V19.4004H107.324ZM102.977 11.0469V21H100.926V11.0469H102.977ZM116.225 15.791V16.2627C116.225 17.0192 116.122 17.6982 115.917 18.2998C115.712 18.9014 115.423 19.4141 115.049 19.8379C114.675 20.2572 114.229 20.5785 113.709 20.8018C113.194 21.0251 112.622 21.1367 111.993 21.1367C111.369 21.1367 110.797 21.0251 110.277 20.8018C109.762 20.5785 109.316 20.2572 108.938 19.8379C108.559 19.4141 108.265 18.9014 108.056 18.2998C107.851 17.6982 107.748 17.0192 107.748 16.2627V15.791C107.748 15.0299 107.851 14.3509 108.056 13.7539C108.261 13.1523 108.55 12.6396 108.924 12.2158C109.302 11.792 109.749 11.4684 110.264 11.2451C110.783 11.0218 111.355 10.9102 111.979 10.9102C112.608 10.9102 113.18 11.0218 113.695 11.2451C114.215 11.4684 114.661 11.792 115.035 12.2158C115.413 12.6396 115.705 13.1523 115.91 13.7539C116.12 14.3509 116.225 15.0299 116.225 15.791ZM114.153 16.2627V15.7773C114.153 15.2487 114.105 14.7839 114.01 14.3828C113.914 13.9818 113.773 13.6445 113.586 13.3711C113.399 13.0977 113.171 12.8926 112.902 12.7559C112.633 12.6146 112.326 12.5439 111.979 12.5439C111.633 12.5439 111.326 12.6146 111.057 12.7559C110.792 12.8926 110.567 13.0977 110.38 13.3711C110.198 13.6445 110.059 13.9818 109.963 14.3828C109.867 14.7839 109.819 15.2487 109.819 15.7773V16.2627C109.819 16.7868 109.867 17.2516 109.963 17.6572C110.059 18.0583 110.2 18.3978 110.387 18.6758C110.574 18.9492 110.801 19.1566 111.07 19.2979C111.339 19.4391 111.647 19.5098 111.993 19.5098C112.34 19.5098 112.647 19.4391 112.916 19.2979C113.185 19.1566 113.41 18.9492 113.593 18.6758C113.775 18.3978 113.914 18.0583 114.01 17.6572C114.105 17.2516 114.153 16.7868 114.153 16.2627Z" fill="#14448B"/>
</g>
<defs>
<filter id="filter0_d_2206_3847" x="0" y="0" width="133" height="34" filterUnits="userSpaceOnUse" color-interpolation-filters="sRGB">
<feFlood flood-opacity="0" result="BackgroundImageFix"/>
<feColorMatrix in="SourceAlpha" type="matrix" values="0 0 0 0 0 0 0 0 0 0 0 0 0 0 0 0 0 0 127 0" result="hardAlpha"/>
<feOffset dy="2"/>
<feColorMatrix type="matrix" values="0 0 0 0 0 0 0 0 0 0 0 0 0 0 0 0 0 0 0.016 0"/>
<feBlend mode="normal" in2="BackgroundImageFix" result="effect1_dropShadow_2206_3847"/>
<feBlend mode="normal" in="SourceGraphic" in2="effect1_dropShadow_2206_3847" result="shape"/>
</filter>
<clipPath id="clip0_2206_3847">
<rect width="20" height="20" fill="white" transform="translate(16 6)"/>
</clipPath>
</defs>
</svg>
