<svg width="100" height="100" viewBox="0 0 100 100" fill="none" xmlns="http://www.w3.org/2000/svg">
<path d="M0.5 50C0.5 22.6619 22.6619 0.5 50 0.5C77.3381 0.5 99.5 22.6619 99.5 50C99.5 77.3381 77.3381 99.5 50 99.5C22.6619 99.5 0.5 77.3381 0.5 50Z" fill="white" fill-opacity="0.14" stroke="#D9D9D9"/>
<path d="M75.751 61.0754V61.0208L69.4456 34.5186C69.3469 34.1089 68.9807 33.8201 68.5595 33.8206H57.0776V23.9101C57.0776 23.4077 56.67 23 56.1671 23H43.0412C42.5382 23 42.1306 23.4077 42.1306 23.9101V33.8206H31.2068C30.7856 33.8201 30.4194 34.1089 30.3208 34.5186L24.0035 61.0208C23.9988 61.0733 23.9988 61.1262 24.0035 61.1787V76.0894C24.0035 76.5923 24.4107 77 24.9136 77H74.8597C75.3626 77 75.7703 76.5923 75.7703 76.0894V61.2328C75.7686 61.1795 75.7626 61.127 75.752 61.075L75.751 61.0754ZM43.9506 24.8209H55.257V42.0801C55.257 42.583 55.6646 42.9907 56.1671 42.9907H60.8461L49.6005 57.2523L38.3429 42.9907H43.0219C43.5244 42.9907 43.9321 42.583 43.9321 42.0801L43.9506 24.8209ZM31.9095 35.6416H42.1294V41.1702H36.4857C36.1475 41.1778 35.8414 41.3726 35.6911 41.6757C35.5408 41.9792 35.5709 42.3407 35.7694 42.6146L48.8845 59.2853C49.0572 59.505 49.3214 59.6337 49.6008 59.6337C49.8802 59.6337 50.1443 59.505 50.317 59.2853L63.4375 42.6146C63.6543 42.3403 63.6949 41.9665 63.5421 41.6524C63.3897 41.3383 63.0705 41.1389 62.7213 41.1397H57.0775V35.6416H67.8376L73.7061 60.3232L59.8996 60.3227C59.3967 60.3227 58.9895 60.7304 58.9895 61.2333V65.0687H40.7712V61.2333C40.7712 60.7304 40.3635 60.3227 39.8611 60.3227H26.0427L31.9095 35.6416ZM73.9477 75.1796H25.7985V62.1437H38.9493V65.9549C38.9493 66.4578 39.357 66.865 39.8599 66.865H59.8868H59.8864C60.3893 66.865 60.797 66.4578 60.797 65.9549V62.1437H73.9478L73.9477 75.1796Z" fill="white"/>
<path d="M59.6432 70.2461H40.0107C39.5078 70.2461 39.1006 70.6533 39.1006 71.1562C39.1006 71.6591 39.5078 72.0664 40.0107 72.0664H59.6432C60.1461 72.0664 60.5534 71.6591 60.5534 71.1562C60.5534 70.6533 60.1461 70.2461 59.6432 70.2461Z" fill="white"/>
</svg>
