<svg width="100" height="100" viewBox="0 0 100 100" fill="none" xmlns="http://www.w3.org/2000/svg">
<path d="M50 99.5C22.6619 99.5 0.5 77.3381 0.5 50C0.5 22.6619 22.6619 0.5 50 0.5C77.3381 0.5 99.5 22.6619 99.5 50C99.5 77.3381 77.3381 99.5 50 99.5Z" fill="white" fill-opacity="0.14" stroke="#D9D9D9"/>
<path d="M34.0071 21C33.512 21.002 33.1121 21.405 33.1141 21.9001V27.1481H31.6973C31.4584 27.1473 31.2291 27.2418 31.0602 27.4107C30.8909 27.5796 30.7964 27.8093 30.7976 28.0483V35.0577H28.038C28.0067 35.0561 27.9759 35.0561 27.9451 35.0577C27.5845 35.0949 27.2815 35.3459 27.1779 35.6933L24.04 45.9507C24.0396 45.9539 24.0388 45.9575 24.0384 45.9607C24.0348 45.9723 24.0312 45.9839 24.028 45.9955C24.0224 46.0175 24.0176 46.0399 24.014 46.062C24.0048 46.1132 24 46.1644 24 46.2165V72.1054C24.0004 72.3436 24.0957 72.5717 24.2646 72.7394C24.433 72.9071 24.662 73.0012 24.9001 73H75.1054C75.5981 72.9984 75.9971 72.5985 75.9983 72.1054V46.281C76.0031 46.2034 75.9979 46.1249 75.9823 46.0485C75.9819 46.0449 75.9811 46.0417 75.9807 46.0381C75.9787 46.0305 75.9771 46.0225 75.9751 46.0145C75.9699 45.9932 75.9643 45.9724 75.9575 45.9516L72.8213 35.6942C72.7068 35.3175 72.3602 35.0598 71.9668 35.0586H69.202V28.0492C69.2032 27.8111 69.1091 27.5825 68.9414 27.4136C68.7733 27.2447 68.5456 27.1495 68.3075 27.1491H66.8926V21.9011C66.8934 21.6621 66.799 21.4328 66.6301 21.2635C66.4608 21.0946 66.2314 21.0001 65.9925 21.0009L34.0071 21ZM34.9 22.7931H65.0979V27.1481H34.9V22.7931ZM32.5902 28.9412H67.4081V35.6793C67.3516 35.8566 67.3516 36.0467 67.4081 36.224V45.3227H61.022V45.3223C60.6285 45.3207 60.2799 45.5757 60.1623 45.9511L58.4937 51.3776H41.512L39.8383 45.9511C39.721 45.5773 39.3752 45.3227 38.9838 45.3223H32.5908V36.0331C32.5948 35.9831 32.5948 35.9327 32.5908 35.8826L32.5902 28.9412ZM38.4877 33.7004H38.4881C38.0006 33.7361 37.6312 34.1547 37.6564 34.6426C37.6816 35.1305 38.0923 35.5087 38.5806 35.4935H61.426C61.9139 35.4831 62.3037 35.0849 62.3037 34.597C62.3037 34.1095 61.9139 33.7108 61.426 33.7004H38.5806C38.5497 33.6988 38.5189 33.6988 38.4881 33.7004H38.4877ZM28.6996 36.8507H30.7977V45.3222H26.1118L28.6996 36.8507ZM69.2019 36.8507H71.2996L73.8859 45.3222H69.2019V36.8507ZM38.4876 39.4387H38.488C38.0005 39.4743 37.6311 39.893 37.6563 40.3809C37.6815 40.8688 38.0922 41.247 38.5805 41.2318H61.4259C61.9138 41.2214 62.3036 40.8231 62.3036 40.3352C62.3036 39.8473 61.9138 39.4491 61.4259 39.4387H38.5805C38.5496 39.4371 38.5188 39.4371 38.488 39.4387H38.4876ZM25.7949 47.1153H38.3216L39.9902 52.535C40.1078 52.9105 40.4564 53.1654 40.8499 53.1638H59.1553C59.5467 53.163 59.8925 52.9085 60.0098 52.535L61.684 47.1153H74.2056V71.2051H25.7944L25.7949 47.1153ZM43.8411 57.592C43.3824 57.6381 43.0334 58.0239 43.0338 58.485V63.2566C43.0358 63.7517 43.4389 64.1515 43.934 64.1495H56.0652C56.5603 64.1515 56.9633 63.7517 56.9653 63.2566V58.485C56.9633 57.9899 56.5603 57.59 56.0652 57.592H43.934C43.9032 57.5904 43.8719 57.5904 43.8411 57.592H43.8411ZM44.8285 59.3851H55.1718V62.3565H44.8285V59.3851Z" fill="white" stroke="white" stroke-width="0.2"/>
</svg>
