<svg width="143" height="62" viewBox="0 0 143 62" fill="none" xmlns="http://www.w3.org/2000/svg">
<path d="M53.6504 7.292V23H56.2244V12.176H56.3124L60.9324 23H63.1544L67.7744 12.176H67.8624V23H70.4364V7.292H67.4224L62.0984 19.612H62.0104L56.6644 7.292H53.6504ZM72.0934 11.626L76.6034 22.736L74.6014 27.356H77.2854L83.4454 11.626H80.7174L77.8354 19.722L74.8214 11.626H72.0934ZM1.80855 38.292V54H13.5126V51.8H4.38255V47.048H12.6106V44.848H4.38255V40.492H13.1386V38.292H1.80855ZM21.5778 42.318C20.8958 42.318 20.2798 42.45 19.7078 42.736C19.1578 43 18.6518 43.418 18.2118 43.946V42.626H15.7038V54H18.2118V47.158C18.2998 46.256 18.6078 45.552 19.1358 45.068C19.5978 44.628 20.1478 44.408 20.7638 44.408C22.4798 44.408 23.3378 45.332 23.3378 47.202V54H25.8458V46.982C25.8458 43.858 24.4158 42.318 21.5778 42.318ZM28.487 37.984V54H30.995V47.642C30.995 46.674 31.215 45.904 31.677 45.288C32.117 44.672 32.733 44.364 33.525 44.364C34.383 44.364 35.021 44.628 35.461 45.178C35.835 45.684 36.033 46.432 36.033 47.4V54H38.541V46.96C38.541 45.442 38.211 44.298 37.573 43.528C36.891 42.714 35.857 42.318 34.471 42.318C33.745 42.318 33.107 42.45 32.557 42.736C31.941 43.044 31.413 43.506 30.995 44.144V37.984H28.487ZM46.3543 42.318C44.9023 42.318 43.7583 42.56 42.9223 43.088C41.9323 43.66 41.3163 44.584 41.0743 45.838L43.5603 46.036C43.6923 45.442 44.0223 45.002 44.5063 44.716C44.9243 44.452 45.4743 44.342 46.1783 44.342C47.8063 44.342 48.6203 45.068 48.6203 46.564V47.004L46.1343 47.07C44.4623 47.114 43.1643 47.466 42.2403 48.126C41.2283 48.808 40.7443 49.798 40.7443 51.074C40.7443 52.02 41.0963 52.79 41.8003 53.406C42.4823 54 43.4063 54.308 44.5943 54.308C45.5843 54.308 46.4423 54.132 47.1683 53.802C47.8063 53.494 48.3563 53.076 48.7963 52.504V54H51.1283V46.74C51.1283 45.354 50.7763 44.298 50.0723 43.572C49.2803 42.736 48.0263 42.318 46.3543 42.318ZM48.6203 48.808V49.38C48.6203 50.26 48.2683 50.986 47.6083 51.558C46.9483 52.108 46.1343 52.394 45.1663 52.394C44.6163 52.394 44.1763 52.24 43.8243 51.976C43.4723 51.712 43.3183 51.382 43.3183 50.986C43.3183 49.622 44.3083 48.918 46.3103 48.874L48.6203 48.808ZM59.6481 42.318C58.9661 42.318 58.3501 42.45 57.7781 42.736C57.2281 43 56.7221 43.418 56.2821 43.946V42.626H53.7741V54H56.2821V47.158C56.3701 46.256 56.6781 45.552 57.2061 45.068C57.6681 44.628 58.2181 44.408 58.8341 44.408C60.5501 44.408 61.4081 45.332 61.4081 47.202V54H63.9161V46.982C63.9161 43.858 62.4861 42.318 59.6481 42.318ZM71.6613 42.318C69.8793 42.318 68.4933 42.912 67.5033 44.1C66.5793 45.178 66.1173 46.586 66.1173 48.302C66.1173 50.062 66.5793 51.492 67.5253 52.592C68.4933 53.736 69.8573 54.308 71.6173 54.308C73.0913 54.308 74.2793 53.934 75.1593 53.208C76.0613 52.46 76.6553 51.316 76.9193 49.776H74.4333C74.2353 51.426 73.3113 52.262 71.6393 52.262C70.6713 52.262 69.9453 51.91 69.4613 51.228C68.9333 50.524 68.6913 49.534 68.6913 48.28C68.6913 47.048 68.9553 46.08 69.4833 45.398C70.0113 44.694 70.7373 44.364 71.6613 44.364C72.4093 44.364 73.0253 44.54 73.4873 44.892C73.9273 45.244 74.2353 45.772 74.3893 46.498H76.8753C76.6553 45.068 76.0833 44.012 75.1813 43.308C74.3013 42.648 73.1353 42.318 71.6613 42.318ZM83.7293 42.318C82.0353 42.318 80.6933 42.89 79.7253 44.056C78.7133 45.2 78.2293 46.608 78.2293 48.302C78.2293 50.194 78.7573 51.668 79.8133 52.746C80.8033 53.78 82.1453 54.308 83.8393 54.308C85.3573 54.308 86.6113 53.868 87.6233 53.01C88.4153 52.306 88.9433 51.404 89.2073 50.348H86.6993C86.3913 50.986 86.0613 51.448 85.6873 51.734C85.2033 52.086 84.5873 52.262 83.8173 52.262C82.9153 52.262 82.2113 51.976 81.7273 51.426C81.2433 50.876 80.9573 50.062 80.8693 49.006H89.3833C89.3833 46.96 88.9213 45.354 88.0193 44.21C87.0293 42.934 85.5993 42.318 83.7293 42.318ZM83.7953 44.364C85.5553 44.364 86.5453 45.266 86.7653 47.114H80.9133C81.0673 46.212 81.3753 45.53 81.8373 45.068C82.3213 44.584 82.9593 44.364 83.7953 44.364ZM96.9598 42.318C95.8598 42.318 94.8258 42.802 93.8798 43.792V42.626H91.3718V54H93.8798V47.18C93.8798 46.432 94.0998 45.772 94.5398 45.244C94.9798 44.672 95.5518 44.408 96.2778 44.408C97.7738 44.408 98.5218 45.266 98.5218 47.004V54H101.03V47.048C101.03 46.212 101.228 45.574 101.668 45.112C102.086 44.628 102.592 44.408 103.208 44.408C104.088 44.408 104.704 44.606 105.1 45.024C105.474 45.42 105.672 46.08 105.672 46.982V54H108.18V46.542C108.18 45.288 107.784 44.276 107.036 43.484C106.244 42.692 105.276 42.318 104.11 42.318C103.34 42.318 102.702 42.45 102.196 42.714C101.624 42.978 101.074 43.462 100.546 44.166C99.8198 42.934 98.6318 42.318 96.9598 42.318ZM115.655 42.318C113.961 42.318 112.619 42.89 111.651 44.056C110.639 45.2 110.155 46.608 110.155 48.302C110.155 50.194 110.683 51.668 111.739 52.746C112.729 53.78 114.071 54.308 115.765 54.308C117.283 54.308 118.537 53.868 119.549 53.01C120.341 52.306 120.869 51.404 121.133 50.348H118.625C118.317 50.986 117.987 51.448 117.613 51.734C117.129 52.086 116.513 52.262 115.743 52.262C114.841 52.262 114.137 51.976 113.653 51.426C113.169 50.876 112.883 50.062 112.795 49.006H121.309C121.309 46.96 120.847 45.354 119.945 44.21C118.955 42.934 117.525 42.318 115.655 42.318ZM115.721 44.364C117.481 44.364 118.471 45.266 118.691 47.114H112.839C112.993 46.212 113.301 45.53 113.763 45.068C114.247 44.584 114.885 44.364 115.721 44.364ZM129.172 42.318C128.49 42.318 127.874 42.45 127.302 42.736C126.752 43 126.246 43.418 125.806 43.946V42.626H123.298V54H125.806V47.158C125.894 46.256 126.202 45.552 126.73 45.068C127.192 44.628 127.742 44.408 128.358 44.408C130.074 44.408 130.932 45.332 130.932 47.202V54H133.44V46.982C133.44 43.858 132.01 42.318 129.172 42.318ZM139.645 38.952L137.137 39.986V42.626H135.091V44.694H137.137V51.118C137.137 52.042 137.357 52.724 137.797 53.208C138.259 53.736 138.985 54 139.975 54H141.889V51.932H140.393C140.129 51.932 139.953 51.866 139.821 51.734C139.689 51.58 139.645 51.382 139.645 51.118V44.694H142.175V42.626H139.645V38.952Z" fill="white"/>
</svg>
