<svg width="100" height="100" viewBox="0 0 100 100" fill="none" xmlns="http://www.w3.org/2000/svg">
<path d="M0.5 50C0.5 22.6619 22.6619 0.5 50 0.5C77.3381 0.5 99.5 22.6619 99.5 50C99.5 77.3381 77.3381 99.5 50 99.5C22.6619 99.5 0.5 77.3381 0.5 50Z" fill="white" fill-opacity="0.14" stroke="#D9D9D9"/>
<path d="M72.1214 22H39.9587C39.4334 22 39.0072 22.4262 39.0072 22.952V29.1888H26.952C26.4262 29.1888 26 29.6151 26 30.1404V77.048C26 77.5738 26.4262 78 26.952 78H59.1011C59.6268 78 60.053 77.5738 60.053 77.048V70.8112H72.1207C72.646 70.8112 73.0723 70.3849 73.0723 69.8596V22.952C73.0723 22.4262 72.646 22 72.1207 22H72.1214ZM58.1628 76.0965H27.9047V31.0924H58.1628V76.0965ZM71.1572 68.9077H60.0661V30.1408C60.0661 29.6154 59.6399 29.1892 59.1145 29.1892H40.9117V23.904H71.1573L71.1572 68.9077Z" fill="white"/>
<path d="M41.9518 46.1544H32.3456C31.8202 46.1544 31.394 45.7286 31.394 45.2028V35.5966C31.394 35.0713 31.8202 34.6451 32.3456 34.6451H41.9518C42.2098 34.6362 42.4599 34.7327 42.6453 34.9124C42.8308 35.0917 42.9352 35.3386 42.9352 35.5966V45.2028C42.9352 45.4609 42.8308 45.7078 42.6453 45.8871C42.4599 46.0668 42.2098 46.1633 41.9518 46.1544V46.1544ZM33.2975 44.2508L41.0317 44.2513V36.5486H33.2975V44.2508Z" fill="white"/>
<path d="M54.2851 53.2805H31.8119C31.2861 53.2805 30.8604 52.8543 30.8604 52.3285C30.8604 51.8032 31.2861 51.377 31.8119 51.377H54.2851C54.8109 51.377 55.2371 51.8032 55.2371 52.3285C55.2371 52.8543 54.8109 53.2805 54.2851 53.2805Z" fill="white"/>
<path d="M54.2851 62.8996H31.8119C31.2861 62.8996 30.8604 62.4734 30.8604 61.9481C30.8604 61.4223 31.2861 60.9961 31.8119 60.9961H54.2851C54.8109 60.9961 55.2371 61.4223 55.2371 61.9481C55.2371 62.4734 54.8109 62.8996 54.2851 62.8996Z" fill="white"/>
<path d="M54.2851 72.5266H31.8119C31.2861 72.5266 30.8604 72.1004 30.8604 71.5746C30.8604 71.0493 31.2861 70.623 31.8119 70.623H54.2851C54.8109 70.623 55.2371 71.0493 55.2371 71.5746C55.2371 72.1004 54.8109 72.5266 54.2851 72.5266Z" fill="white"/>
</svg>
