<svg width="100" height="34" viewBox="0 0 100 34" fill="none" xmlns="http://www.w3.org/2000/svg">
<g filter="url(#filter0_d_1896_4061)">
<rect width="100" height="32" rx="16" fill="white"/>
<g clip-path="url(#clip0_1896_4061)">
<path d="M28.1584 12.666L26.0001 14.8243L23.8417 12.666L22.6667 13.841L24.8251 15.9993L22.6667 18.1577L23.8417 19.3327L26.0001 17.1743L28.1584 19.3327L29.3334 18.1577L27.1751 15.9993L29.3334 13.841L28.1584 12.666ZM26.0001 7.66602C21.3917 7.66602 17.6667 11.391 17.6667 15.9993C17.6667 20.6077 21.3917 24.3327 26.0001 24.3327C30.6084 24.3327 34.3334 20.6077 34.3334 15.9993C34.3334 11.391 30.6084 7.66602 26.0001 7.66602ZM26.0001 22.666C22.3251 22.666 19.3334 19.6743 19.3334 15.9993C19.3334 12.3243 22.3251 9.33268 26.0001 9.33268C29.6751 9.33268 32.6667 12.3243 32.6667 15.9993C32.6667 19.6743 29.6751 22.666 26.0001 22.666Z" fill="#D64A4E"/>
</g>
<path d="M44.9961 11.0469H48.708C49.4691 11.0469 50.123 11.1608 50.6699 11.3887C51.2214 11.6165 51.6452 11.9538 51.9414 12.4004C52.2376 12.847 52.3857 13.3962 52.3857 14.0479C52.3857 14.5811 52.2946 15.0391 52.1123 15.4219C51.9346 15.8001 51.6816 16.1169 51.3535 16.3721C51.0299 16.6227 50.6494 16.8232 50.2119 16.9736L49.5625 17.3154H46.3359L46.3223 15.7158H48.7217C49.0817 15.7158 49.3802 15.652 49.6172 15.5244C49.8542 15.3968 50.0319 15.2191 50.1504 14.9912C50.2734 14.7633 50.335 14.499 50.335 14.1982C50.335 13.8792 50.2757 13.6035 50.1572 13.3711C50.0387 13.1387 49.8587 12.9609 49.6172 12.8379C49.3757 12.7148 49.0726 12.6533 48.708 12.6533H47.0469V21H44.9961V11.0469ZM50.5605 21L48.291 16.5635L50.458 16.5498L52.7549 20.9043V21H50.5605ZM57.2461 21.1367C56.6719 21.1367 56.1569 21.0456 55.7012 20.8633C55.2454 20.6764 54.8581 20.4189 54.5391 20.0908C54.2246 19.7627 53.9831 19.3822 53.8145 18.9492C53.6458 18.5117 53.5615 18.0469 53.5615 17.5547V17.2812C53.5615 16.7207 53.6413 16.208 53.8008 15.7432C53.9603 15.2783 54.1882 14.875 54.4844 14.5332C54.7852 14.1914 55.1497 13.9294 55.5781 13.7471C56.0065 13.5602 56.4896 13.4668 57.0273 13.4668C57.5514 13.4668 58.0163 13.5534 58.4219 13.7266C58.8275 13.8997 59.167 14.1458 59.4404 14.4648C59.7184 14.7839 59.9281 15.1667 60.0693 15.6133C60.2106 16.0553 60.2812 16.5475 60.2812 17.0898V17.9102H54.4023V16.5977H58.3467V16.4473C58.3467 16.1738 58.2965 15.93 58.1963 15.7158C58.1006 15.4971 57.9548 15.3239 57.7588 15.1963C57.5628 15.0687 57.3122 15.0049 57.0068 15.0049C56.7471 15.0049 56.5238 15.0618 56.3369 15.1758C56.1501 15.2897 55.9974 15.4492 55.8789 15.6543C55.765 15.8594 55.6784 16.1009 55.6191 16.3789C55.5645 16.6523 55.5371 16.9531 55.5371 17.2812V17.5547C55.5371 17.8509 55.5781 18.1243 55.6602 18.375C55.7467 18.6257 55.8675 18.8421 56.0225 19.0244C56.182 19.2067 56.3734 19.348 56.5967 19.4482C56.8245 19.5485 57.082 19.5986 57.3691 19.5986C57.7246 19.5986 58.055 19.5303 58.3604 19.3936C58.6702 19.2523 58.9368 19.0404 59.1602 18.7578L60.1172 19.7969C59.9622 20.0202 59.7503 20.2344 59.4814 20.4395C59.2171 20.6445 58.8981 20.8132 58.5244 20.9453C58.1507 21.0729 57.7246 21.1367 57.2461 21.1367ZM61.5117 13.6035H63.4873V21.4443C63.4873 21.9912 63.387 22.4538 63.1865 22.832C62.986 23.2103 62.6966 23.4974 62.3184 23.6934C61.9401 23.8893 61.4821 23.9873 60.9443 23.9873C60.7757 23.9873 60.6117 23.9782 60.4521 23.96C60.2881 23.9417 60.1195 23.9121 59.9463 23.8711L59.9531 22.3604C60.0625 22.3786 60.1696 22.3923 60.2744 22.4014C60.3747 22.415 60.4772 22.4219 60.582 22.4219C60.7871 22.4219 60.958 22.3877 61.0947 22.3193C61.2314 22.251 61.334 22.1439 61.4023 21.998C61.4753 21.8568 61.5117 21.6722 61.5117 21.4443V13.6035ZM61.3545 11.6758C61.3545 11.3887 61.4548 11.1517 61.6553 10.9648C61.8604 10.778 62.1292 10.6846 62.4619 10.6846C62.7992 10.6846 63.068 10.778 63.2686 10.9648C63.4691 11.1517 63.5693 11.3887 63.5693 11.6758C63.5693 11.9629 63.4691 12.1999 63.2686 12.3867C63.068 12.5736 62.7992 12.667 62.4619 12.667C62.1292 12.667 61.8604 12.5736 61.6553 12.3867C61.4548 12.1999 61.3545 11.9629 61.3545 11.6758ZM68.457 21.1367C67.8828 21.1367 67.3678 21.0456 66.9121 20.8633C66.4564 20.6764 66.069 20.4189 65.75 20.0908C65.4355 19.7627 65.194 19.3822 65.0254 18.9492C64.8568 18.5117 64.7725 18.0469 64.7725 17.5547V17.2812C64.7725 16.7207 64.8522 16.208 65.0117 15.7432C65.1712 15.2783 65.3991 14.875 65.6953 14.5332C65.9961 14.1914 66.3607 13.9294 66.7891 13.7471C67.2174 13.5602 67.7005 13.4668 68.2383 13.4668C68.7624 13.4668 69.2272 13.5534 69.6328 13.7266C70.0384 13.8997 70.3779 14.1458 70.6514 14.4648C70.9294 14.7839 71.139 15.1667 71.2803 15.6133C71.4215 16.0553 71.4922 16.5475 71.4922 17.0898V17.9102H65.6133V16.5977H69.5576V16.4473C69.5576 16.1738 69.5075 15.93 69.4072 15.7158C69.3115 15.4971 69.1657 15.3239 68.9697 15.1963C68.7738 15.0687 68.5231 15.0049 68.2178 15.0049C67.958 15.0049 67.7347 15.0618 67.5479 15.1758C67.361 15.2897 67.2083 15.4492 67.0898 15.6543C66.9759 15.8594 66.8893 16.1009 66.8301 16.3789C66.7754 16.6523 66.748 16.9531 66.748 17.2812V17.5547C66.748 17.8509 66.7891 18.1243 66.8711 18.375C66.9577 18.6257 67.0785 18.8421 67.2334 19.0244C67.3929 19.2067 67.5843 19.348 67.8076 19.4482C68.0355 19.5485 68.293 19.5986 68.5801 19.5986C68.9355 19.5986 69.266 19.5303 69.5713 19.3936C69.8812 19.2523 70.1478 19.0404 70.3711 18.7578L71.3281 19.7969C71.1732 20.0202 70.9613 20.2344 70.6924 20.4395C70.4281 20.6445 70.109 20.8132 69.7354 20.9453C69.3617 21.0729 68.9355 21.1367 68.457 21.1367ZM75.6689 19.5986C75.9105 19.5986 76.1247 19.5531 76.3115 19.4619C76.4984 19.3662 76.6442 19.234 76.749 19.0654C76.8584 18.8923 76.9154 18.6895 76.9199 18.457H78.7725C78.7679 18.9766 78.6289 19.4391 78.3555 19.8447C78.082 20.2458 77.7152 20.5625 77.2549 20.7949C76.7946 21.0228 76.2796 21.1367 75.71 21.1367C75.1357 21.1367 74.6344 21.041 74.2061 20.8496C73.7822 20.6582 73.429 20.3939 73.1465 20.0566C72.8639 19.7148 72.652 19.3184 72.5107 18.8672C72.3695 18.4115 72.2988 17.9238 72.2988 17.4043V17.2061C72.2988 16.682 72.3695 16.1943 72.5107 15.7432C72.652 15.2874 72.8639 14.891 73.1465 14.5537C73.429 14.2119 73.7822 13.9453 74.2061 13.7539C74.6299 13.5625 75.1266 13.4668 75.6963 13.4668C76.3024 13.4668 76.8333 13.583 77.2891 13.8154C77.7493 14.0479 78.1094 14.3805 78.3691 14.8135C78.6335 15.2419 78.7679 15.75 78.7725 16.3379H76.9199C76.9154 16.0918 76.863 15.8685 76.7627 15.668C76.667 15.4674 76.5257 15.3079 76.3389 15.1895C76.1566 15.0664 75.931 15.0049 75.6621 15.0049C75.375 15.0049 75.1403 15.0664 74.958 15.1895C74.7757 15.3079 74.6344 15.472 74.5342 15.6816C74.4339 15.8867 74.3633 16.1214 74.3223 16.3857C74.2858 16.6455 74.2676 16.9189 74.2676 17.2061V17.4043C74.2676 17.6914 74.2858 17.9671 74.3223 18.2314C74.3587 18.4958 74.4271 18.7305 74.5273 18.9355C74.6322 19.1406 74.7757 19.3024 74.958 19.4209C75.1403 19.5394 75.3773 19.5986 75.6689 19.5986ZM83.5371 13.6035V14.998H79.2305V13.6035H83.5371ZM80.2969 11.7783H82.2656V18.7715C82.2656 18.9857 82.293 19.1497 82.3477 19.2637C82.4069 19.3776 82.4935 19.4574 82.6074 19.5029C82.7214 19.5439 82.8649 19.5645 83.0381 19.5645C83.1611 19.5645 83.2705 19.5599 83.3662 19.5508C83.4665 19.5371 83.5508 19.5234 83.6191 19.5098L83.626 20.959C83.4574 21.0137 83.2751 21.057 83.0791 21.0889C82.8831 21.1208 82.6667 21.1367 82.4297 21.1367C81.9967 21.1367 81.6185 21.0661 81.2949 20.9248C80.9759 20.779 80.7298 20.5465 80.5566 20.2275C80.3835 19.9085 80.2969 19.4893 80.2969 18.9697V11.7783Z" fill="#D64A4E"/>
</g>
<defs>
<filter id="filter0_d_1896_4061" x="0" y="0" width="100" height="34" filterUnits="userSpaceOnUse" color-interpolation-filters="sRGB">
<feFlood flood-opacity="0" result="BackgroundImageFix"/>
<feColorMatrix in="SourceAlpha" type="matrix" values="0 0 0 0 0 0 0 0 0 0 0 0 0 0 0 0 0 0 127 0" result="hardAlpha"/>
<feOffset dy="2"/>
<feColorMatrix type="matrix" values="0 0 0 0 0 0 0 0 0 0 0 0 0 0 0 0 0 0 0.016 0"/>
<feBlend mode="normal" in2="BackgroundImageFix" result="effect1_dropShadow_1896_4061"/>
<feBlend mode="normal" in="SourceGraphic" in2="effect1_dropShadow_1896_4061" result="shape"/>
</filter>
<clipPath id="clip0_1896_4061">
<rect width="20" height="20" fill="white" transform="translate(16 6)"/>
</clipPath>
</defs>
</svg>
