<svg width="149" height="34" viewBox="0 0 149 34" fill="none" xmlns="http://www.w3.org/2000/svg">
<g filter="url(#filter0_d_2205_3857)">
<rect width="149" height="32" rx="16" fill="white"/>
<g clip-path="url(#clip0_2205_3857)">
<path d="M26.0001 7.66602C21.4001 7.66602 17.6667 11.3993 17.6667 15.9993C17.6667 20.5993 21.4001 24.3327 26.0001 24.3327C30.6001 24.3327 34.3334 20.5993 34.3334 15.9993C34.3334 11.3993 30.6001 7.66602 26.0001 7.66602ZM26.0001 22.666C22.3251 22.666 19.3334 19.6743 19.3334 15.9993C19.3334 12.3243 22.3251 9.33268 26.0001 9.33268C29.6751 9.33268 32.6667 12.3243 32.6667 15.9993C32.6667 19.6743 29.6751 22.666 26.0001 22.666ZM29.8251 12.316L24.3334 17.8077L22.1751 15.6577L21.0001 16.8327L24.3334 20.166L31.0001 13.4993L29.8251 12.316Z" fill="#25AF8E"/>
</g>
<path d="M50.4238 11.0469H52.4678V17.623C52.4678 18.3887 52.3037 19.0335 51.9756 19.5576C51.652 20.0817 51.2031 20.4759 50.6289 20.7402C50.0592 21.0046 49.403 21.1367 48.6602 21.1367C47.9173 21.1367 47.2565 21.0046 46.6777 20.7402C46.1035 20.4759 45.6523 20.0817 45.3242 19.5576C45.0007 19.0335 44.8389 18.3887 44.8389 17.623V11.0469H46.8896V17.623C46.8896 18.0697 46.9603 18.4342 47.1016 18.7168C47.2428 18.9993 47.4456 19.2067 47.71 19.3389C47.9788 19.471 48.2956 19.5371 48.6602 19.5371C49.0339 19.5371 49.3506 19.471 49.6104 19.3389C49.8747 19.2067 50.0752 18.9993 50.2119 18.7168C50.3532 18.4342 50.4238 18.0697 50.4238 17.623V11.0469ZM56.002 15.0254V23.8438H54.0332V13.6035H55.8584L56.002 15.0254ZM60.6846 17.2197V17.3633C60.6846 17.901 60.6208 18.4001 60.4932 18.8604C60.3701 19.3206 60.1878 19.7217 59.9463 20.0635C59.7048 20.4007 59.404 20.665 59.0439 20.8564C58.6885 21.0433 58.2783 21.1367 57.8135 21.1367C57.3623 21.1367 56.9704 21.0456 56.6377 20.8633C56.305 20.681 56.0247 20.4258 55.7969 20.0977C55.5736 19.765 55.3936 19.3799 55.2568 18.9424C55.1201 18.5049 55.0153 18.0355 54.9424 17.5342V17.1582C55.0153 16.6204 55.1201 16.1283 55.2568 15.6816C55.3936 15.2305 55.5736 14.8408 55.7969 14.5127C56.0247 14.18 56.3027 13.9225 56.6309 13.7402C56.9635 13.5579 57.3532 13.4668 57.7998 13.4668C58.2692 13.4668 58.6816 13.5557 59.0371 13.7334C59.3971 13.9111 59.6979 14.1663 59.9395 14.499C60.1855 14.8317 60.3701 15.2282 60.4932 15.6885C60.6208 16.1488 60.6846 16.6592 60.6846 17.2197ZM58.709 17.3633V17.2197C58.709 16.9053 58.6816 16.6159 58.627 16.3516C58.5768 16.0827 58.4948 15.848 58.3809 15.6475C58.2715 15.4469 58.1257 15.292 57.9434 15.1826C57.7656 15.0687 57.5492 15.0117 57.2939 15.0117C57.0251 15.0117 56.7949 15.055 56.6035 15.1416C56.4167 15.2282 56.264 15.3535 56.1455 15.5176C56.027 15.6816 55.9382 15.8776 55.8789 16.1055C55.8197 16.3333 55.7832 16.5908 55.7695 16.8779V17.8281C55.7923 18.1654 55.8561 18.4684 55.9609 18.7373C56.0658 19.0016 56.2275 19.2113 56.4463 19.3662C56.665 19.5212 56.9521 19.5986 57.3076 19.5986C57.5674 19.5986 57.7861 19.5417 57.9639 19.4277C58.1416 19.3092 58.2852 19.1475 58.3945 18.9424C58.5085 18.7373 58.5882 18.5003 58.6338 18.2314C58.6839 17.9626 58.709 17.6732 58.709 17.3633ZM66.2764 19.3867V10.5H68.2588V21H66.4746L66.2764 19.3867ZM61.6006 17.3906V17.2471C61.6006 16.682 61.6644 16.1693 61.792 15.709C61.9196 15.2441 62.1064 14.8454 62.3525 14.5127C62.5986 14.18 62.9017 13.9225 63.2617 13.7402C63.6217 13.5579 64.0319 13.4668 64.4922 13.4668C64.9251 13.4668 65.3034 13.5579 65.627 13.7402C65.9551 13.9225 66.2331 14.1823 66.4609 14.5195C66.6934 14.8522 66.8802 15.2464 67.0215 15.7021C67.1628 16.1533 67.2653 16.6478 67.3291 17.1855V17.5C67.2653 18.015 67.1628 18.4935 67.0215 18.9355C66.8802 19.3776 66.6934 19.765 66.4609 20.0977C66.2331 20.4258 65.9551 20.681 65.627 20.8633C65.2988 21.0456 64.916 21.1367 64.4785 21.1367C64.0182 21.1367 63.6081 21.0433 63.248 20.8564C62.8926 20.6696 62.5918 20.4076 62.3457 20.0703C62.1042 19.7331 61.9196 19.3366 61.792 18.8809C61.6644 18.4251 61.6006 17.9284 61.6006 17.3906ZM63.5693 17.2471V17.3906C63.5693 17.696 63.5921 17.9808 63.6377 18.2451C63.6878 18.5094 63.7676 18.7441 63.877 18.9492C63.9909 19.1497 64.1367 19.307 64.3145 19.4209C64.4967 19.5303 64.7178 19.585 64.9775 19.585C65.3148 19.585 65.5928 19.5098 65.8115 19.3594C66.0303 19.2044 66.1966 18.9925 66.3105 18.7236C66.429 18.4548 66.4974 18.1449 66.5156 17.7939V16.8984C66.502 16.6113 66.4609 16.3538 66.3926 16.126C66.3288 15.8936 66.2331 15.6953 66.1055 15.5312C65.9824 15.3672 65.8275 15.2396 65.6406 15.1484C65.4583 15.0573 65.2419 15.0117 64.9912 15.0117C64.736 15.0117 64.5173 15.071 64.335 15.1895C64.1527 15.3034 64.0046 15.4606 63.8906 15.6611C63.7812 15.8617 63.6992 16.0986 63.6445 16.3721C63.5944 16.641 63.5693 16.9326 63.5693 17.2471ZM73.7891 19.332V16.0371C73.7891 15.8001 73.7503 15.5973 73.6729 15.4287C73.5954 15.2555 73.4746 15.1211 73.3105 15.0254C73.151 14.9297 72.9437 14.8818 72.6885 14.8818C72.4697 14.8818 72.2806 14.9206 72.1211 14.998C71.9616 15.071 71.8385 15.1781 71.752 15.3193C71.6654 15.4561 71.6221 15.6178 71.6221 15.8047H69.6533C69.6533 15.4902 69.7262 15.1917 69.8721 14.9092C70.0179 14.6266 70.2298 14.3783 70.5078 14.1641C70.7858 13.9453 71.1162 13.7744 71.499 13.6514C71.8864 13.5283 72.3193 13.4668 72.7979 13.4668C73.3721 13.4668 73.8825 13.5625 74.3291 13.7539C74.7757 13.9453 75.1266 14.2324 75.3818 14.6152C75.6416 14.998 75.7715 15.4766 75.7715 16.0508V19.2158C75.7715 19.6214 75.7965 19.9541 75.8467 20.2139C75.8968 20.4691 75.9697 20.6924 76.0654 20.8838V21H74.0762C73.9805 20.7995 73.9076 20.5488 73.8574 20.248C73.8118 19.9427 73.7891 19.6374 73.7891 19.332ZM74.0488 16.4951L74.0625 17.6094H72.9619C72.7021 17.6094 72.4766 17.639 72.2852 17.6982C72.0938 17.7575 71.9365 17.8418 71.8135 17.9512C71.6904 18.056 71.5993 18.179 71.54 18.3203C71.4854 18.4616 71.458 18.6165 71.458 18.7852C71.458 18.9538 71.4967 19.1064 71.5742 19.2432C71.6517 19.3753 71.7633 19.4801 71.9092 19.5576C72.055 19.6305 72.2259 19.667 72.4219 19.667C72.7181 19.667 72.9756 19.6077 73.1943 19.4893C73.4131 19.3708 73.5817 19.2249 73.7002 19.0518C73.8232 18.8786 73.887 18.7145 73.8916 18.5596L74.4111 19.3936C74.3382 19.5804 74.238 19.7741 74.1104 19.9746C73.9873 20.1751 73.8301 20.3643 73.6387 20.542C73.4473 20.7152 73.2171 20.8587 72.9482 20.9727C72.6794 21.082 72.3604 21.1367 71.9912 21.1367C71.5218 21.1367 71.0957 21.0433 70.7129 20.8564C70.3346 20.665 70.0339 20.403 69.8105 20.0703C69.5918 19.7331 69.4824 19.3503 69.4824 18.9219C69.4824 18.5345 69.5553 18.1904 69.7012 17.8896C69.847 17.5889 70.0612 17.3359 70.3438 17.1309C70.6309 16.9212 70.9886 16.764 71.417 16.6592C71.8454 16.5498 72.3421 16.4951 72.9072 16.4951H74.0488ZM80.9121 13.6035V14.998H76.6055V13.6035H80.9121ZM77.6719 11.7783H79.6406V18.7715C79.6406 18.9857 79.668 19.1497 79.7227 19.2637C79.7819 19.3776 79.8685 19.4574 79.9824 19.5029C80.0964 19.5439 80.2399 19.5645 80.4131 19.5645C80.5361 19.5645 80.6455 19.5599 80.7412 19.5508C80.8415 19.5371 80.9258 19.5234 80.9941 19.5098L81.001 20.959C80.8324 21.0137 80.6501 21.057 80.4541 21.0889C80.2581 21.1208 80.0417 21.1367 79.8047 21.1367C79.3717 21.1367 78.9935 21.0661 78.6699 20.9248C78.3509 20.779 78.1048 20.5465 77.9316 20.2275C77.7585 19.9085 77.6719 19.4893 77.6719 18.9697V11.7783ZM85.4375 21.1367C84.8633 21.1367 84.3483 21.0456 83.8926 20.8633C83.4368 20.6764 83.0495 20.4189 82.7305 20.0908C82.416 19.7627 82.1745 19.3822 82.0059 18.9492C81.8372 18.5117 81.7529 18.0469 81.7529 17.5547V17.2812C81.7529 16.7207 81.8327 16.208 81.9922 15.7432C82.1517 15.2783 82.3796 14.875 82.6758 14.5332C82.9766 14.1914 83.3411 13.9294 83.7695 13.7471C84.1979 13.5602 84.681 13.4668 85.2188 13.4668C85.7428 13.4668 86.2077 13.5534 86.6133 13.7266C87.0189 13.8997 87.3584 14.1458 87.6318 14.4648C87.9098 14.7839 88.1195 15.1667 88.2607 15.6133C88.402 16.0553 88.4727 16.5475 88.4727 17.0898V17.9102H82.5938V16.5977H86.5381V16.4473C86.5381 16.1738 86.488 15.93 86.3877 15.7158C86.292 15.4971 86.1462 15.3239 85.9502 15.1963C85.7542 15.0687 85.5036 15.0049 85.1982 15.0049C84.9385 15.0049 84.7152 15.0618 84.5283 15.1758C84.3415 15.2897 84.1888 15.4492 84.0703 15.6543C83.9564 15.8594 83.8698 16.1009 83.8105 16.3789C83.7559 16.6523 83.7285 16.9531 83.7285 17.2812V17.5547C83.7285 17.8509 83.7695 18.1243 83.8516 18.375C83.9382 18.6257 84.0589 18.8421 84.2139 19.0244C84.3734 19.2067 84.5648 19.348 84.7881 19.4482C85.016 19.5485 85.2734 19.5986 85.5605 19.5986C85.916 19.5986 86.2464 19.5303 86.5518 19.3936C86.8617 19.2523 87.1283 19.0404 87.3516 18.7578L88.3086 19.7969C88.1536 20.0202 87.9417 20.2344 87.6729 20.4395C87.4085 20.6445 87.0895 20.8132 86.7158 20.9453C86.3421 21.0729 85.916 21.1367 85.4375 21.1367ZM98.3848 18.3955C98.3848 18.2178 98.3574 18.0583 98.3027 17.917C98.2526 17.7712 98.1569 17.639 98.0156 17.5205C97.8743 17.3975 97.6761 17.2767 97.4209 17.1582C97.1657 17.0397 96.8353 16.9167 96.4297 16.7891C95.9785 16.6432 95.5501 16.4792 95.1445 16.2969C94.7435 16.1146 94.388 15.9027 94.0781 15.6611C93.7728 15.415 93.5312 15.1302 93.3535 14.8066C93.1803 14.4831 93.0938 14.1071 93.0938 13.6787C93.0938 13.264 93.1849 12.888 93.3672 12.5508C93.5495 12.209 93.8047 11.9173 94.1328 11.6758C94.4609 11.4297 94.8483 11.2406 95.2949 11.1084C95.7461 10.9762 96.2406 10.9102 96.7783 10.9102C97.512 10.9102 98.1523 11.0423 98.6992 11.3066C99.2461 11.571 99.6699 11.9333 99.9707 12.3936C100.276 12.8538 100.429 13.3802 100.429 13.9727H98.3916C98.3916 13.681 98.3301 13.4258 98.207 13.207C98.0885 12.9837 97.9062 12.8083 97.6602 12.6807C97.4186 12.5531 97.1133 12.4893 96.7441 12.4893C96.3887 12.4893 96.0924 12.5439 95.8555 12.6533C95.6185 12.7581 95.4408 12.9017 95.3223 13.084C95.2038 13.2617 95.1445 13.4622 95.1445 13.6855C95.1445 13.8542 95.1855 14.0068 95.2676 14.1436C95.3542 14.2803 95.4818 14.4079 95.6504 14.5264C95.819 14.6449 96.0264 14.7565 96.2725 14.8613C96.5186 14.9661 96.8034 15.0687 97.127 15.1689C97.6693 15.333 98.1455 15.5176 98.5557 15.7227C98.9704 15.9277 99.3167 16.1579 99.5947 16.4131C99.8727 16.6683 100.082 16.9577 100.224 17.2812C100.365 17.6048 100.436 17.9717 100.436 18.3818C100.436 18.8148 100.351 19.2021 100.183 19.5439C100.014 19.8857 99.7702 20.1751 99.4512 20.4121C99.1322 20.6491 98.7516 20.8291 98.3096 20.9521C97.8675 21.0752 97.373 21.1367 96.8262 21.1367C96.334 21.1367 95.8486 21.0729 95.3701 20.9453C94.8916 20.8132 94.4564 20.6149 94.0645 20.3506C93.6771 20.0863 93.3672 19.749 93.1348 19.3389C92.9023 18.9287 92.7861 18.4434 92.7861 17.8828H94.8438C94.8438 18.1927 94.8916 18.4548 94.9873 18.6689C95.083 18.8831 95.2174 19.0563 95.3906 19.1885C95.5684 19.3206 95.778 19.4163 96.0195 19.4756C96.2656 19.5348 96.5345 19.5645 96.8262 19.5645C97.1816 19.5645 97.4733 19.5143 97.7012 19.4141C97.9336 19.3138 98.1045 19.1748 98.2139 18.9971C98.3278 18.8193 98.3848 18.6188 98.3848 18.3955ZM105.33 13.6035V14.998H101.023V13.6035H105.33ZM102.09 11.7783H104.059V18.7715C104.059 18.9857 104.086 19.1497 104.141 19.2637C104.2 19.3776 104.286 19.4574 104.4 19.5029C104.514 19.5439 104.658 19.5645 104.831 19.5645C104.954 19.5645 105.063 19.5599 105.159 19.5508C105.259 19.5371 105.344 19.5234 105.412 19.5098L105.419 20.959C105.25 21.0137 105.068 21.057 104.872 21.0889C104.676 21.1208 104.46 21.1367 104.223 21.1367C103.79 21.1367 103.411 21.0661 103.088 20.9248C102.769 20.779 102.523 20.5465 102.35 20.2275C102.176 19.9085 102.09 19.4893 102.09 18.9697V11.7783ZM110.443 19.332V16.0371C110.443 15.8001 110.405 15.5973 110.327 15.4287C110.25 15.2555 110.129 15.1211 109.965 15.0254C109.805 14.9297 109.598 14.8818 109.343 14.8818C109.124 14.8818 108.935 14.9206 108.775 14.998C108.616 15.071 108.493 15.1781 108.406 15.3193C108.32 15.4561 108.276 15.6178 108.276 15.8047H106.308C106.308 15.4902 106.381 15.1917 106.526 14.9092C106.672 14.6266 106.884 14.3783 107.162 14.1641C107.44 13.9453 107.771 13.7744 108.153 13.6514C108.541 13.5283 108.974 13.4668 109.452 13.4668C110.026 13.4668 110.537 13.5625 110.983 13.7539C111.43 13.9453 111.781 14.2324 112.036 14.6152C112.296 14.998 112.426 15.4766 112.426 16.0508V19.2158C112.426 19.6214 112.451 19.9541 112.501 20.2139C112.551 20.4691 112.624 20.6924 112.72 20.8838V21H110.73C110.635 20.7995 110.562 20.5488 110.512 20.248C110.466 19.9427 110.443 19.6374 110.443 19.332ZM110.703 16.4951L110.717 17.6094H109.616C109.356 17.6094 109.131 17.639 108.939 17.6982C108.748 17.7575 108.591 17.8418 108.468 17.9512C108.345 18.056 108.254 18.179 108.194 18.3203C108.14 18.4616 108.112 18.6165 108.112 18.7852C108.112 18.9538 108.151 19.1064 108.229 19.2432C108.306 19.3753 108.418 19.4801 108.563 19.5576C108.709 19.6305 108.88 19.667 109.076 19.667C109.372 19.667 109.63 19.6077 109.849 19.4893C110.067 19.3708 110.236 19.2249 110.354 19.0518C110.478 18.8786 110.541 18.7145 110.546 18.5596L111.065 19.3936C110.993 19.5804 110.892 19.7741 110.765 19.9746C110.642 20.1751 110.484 20.3643 110.293 20.542C110.102 20.7152 109.871 20.8587 109.603 20.9727C109.334 21.082 109.015 21.1367 108.646 21.1367C108.176 21.1367 107.75 21.0433 107.367 20.8564C106.989 20.665 106.688 20.403 106.465 20.0703C106.246 19.7331 106.137 19.3503 106.137 18.9219C106.137 18.5345 106.21 18.1904 106.355 17.8896C106.501 17.5889 106.715 17.3359 106.998 17.1309C107.285 16.9212 107.643 16.764 108.071 16.6592C108.5 16.5498 108.996 16.4951 109.562 16.4951H110.703ZM117.566 13.6035V14.998H113.26V13.6035H117.566ZM114.326 11.7783H116.295V18.7715C116.295 18.9857 116.322 19.1497 116.377 19.2637C116.436 19.3776 116.523 19.4574 116.637 19.5029C116.751 19.5439 116.894 19.5645 117.067 19.5645C117.19 19.5645 117.3 19.5599 117.396 19.5508C117.496 19.5371 117.58 19.5234 117.648 19.5098L117.655 20.959C117.487 21.0137 117.304 21.057 117.108 21.0889C116.912 21.1208 116.696 21.1367 116.459 21.1367C116.026 21.1367 115.648 21.0661 115.324 20.9248C115.005 20.779 114.759 20.5465 114.586 20.2275C114.413 19.9085 114.326 19.4893 114.326 18.9697V11.7783ZM123.062 19.2295V13.6035H125.031V21H123.179L123.062 19.2295ZM123.281 17.7119L123.862 17.6982C123.862 18.1904 123.805 18.6484 123.691 19.0723C123.577 19.4915 123.407 19.8561 123.179 20.166C122.951 20.4714 122.664 20.7106 122.317 20.8838C121.971 21.0524 121.563 21.1367 121.094 21.1367C120.734 21.1367 120.401 21.0866 120.096 20.9863C119.795 20.8815 119.535 20.7197 119.316 20.501C119.102 20.2777 118.934 19.9928 118.811 19.6465C118.692 19.2956 118.633 18.874 118.633 18.3818V13.6035H120.602V18.3955C120.602 18.6143 120.627 18.7988 120.677 18.9492C120.731 19.0996 120.807 19.2227 120.902 19.3184C120.998 19.4141 121.11 19.4824 121.237 19.5234C121.369 19.5645 121.515 19.585 121.675 19.585C122.08 19.585 122.399 19.5029 122.632 19.3389C122.869 19.1748 123.035 18.9515 123.131 18.6689C123.231 18.3818 123.281 18.0628 123.281 17.7119ZM130.534 18.9561C130.534 18.8148 130.493 18.6872 130.411 18.5732C130.329 18.4593 130.176 18.3545 129.953 18.2588C129.734 18.1585 129.418 18.0674 129.003 17.9854C128.629 17.9033 128.281 17.8008 127.957 17.6777C127.638 17.5501 127.36 17.3975 127.123 17.2197C126.891 17.042 126.708 16.8324 126.576 16.5908C126.444 16.3447 126.378 16.0645 126.378 15.75C126.378 15.4401 126.444 15.1484 126.576 14.875C126.713 14.6016 126.907 14.36 127.157 14.1504C127.412 13.9362 127.722 13.7699 128.087 13.6514C128.456 13.5283 128.871 13.4668 129.331 13.4668C129.974 13.4668 130.525 13.5693 130.985 13.7744C131.45 13.9795 131.806 14.262 132.052 14.6221C132.302 14.9775 132.428 15.3831 132.428 15.8389H130.459C130.459 15.6475 130.418 15.4766 130.336 15.3262C130.258 15.1712 130.135 15.0505 129.967 14.9639C129.803 14.8727 129.589 14.8271 129.324 14.8271C129.105 14.8271 128.916 14.8659 128.757 14.9434C128.597 15.0163 128.474 15.1165 128.388 15.2441C128.306 15.3672 128.265 15.5039 128.265 15.6543C128.265 15.7682 128.287 15.8708 128.333 15.9619C128.383 16.0485 128.463 16.1283 128.572 16.2012C128.682 16.2741 128.823 16.3424 128.996 16.4062C129.174 16.4655 129.393 16.5202 129.652 16.5703C130.186 16.6797 130.662 16.8232 131.081 17.001C131.5 17.1742 131.833 17.4111 132.079 17.7119C132.325 18.0081 132.448 18.3978 132.448 18.8809C132.448 19.209 132.375 19.5098 132.229 19.7832C132.084 20.0566 131.874 20.2959 131.601 20.501C131.327 20.7015 130.999 20.8587 130.616 20.9727C130.238 21.082 129.812 21.1367 129.338 21.1367C128.65 21.1367 128.066 21.0137 127.588 20.7676C127.114 20.5215 126.754 20.2093 126.508 19.8311C126.266 19.4482 126.146 19.0563 126.146 18.6553H128.012C128.021 18.9242 128.089 19.1406 128.217 19.3047C128.349 19.4688 128.515 19.5872 128.716 19.6602C128.921 19.7331 129.142 19.7695 129.379 19.7695C129.634 19.7695 129.846 19.7354 130.015 19.667C130.183 19.5941 130.311 19.4984 130.397 19.3799C130.489 19.2568 130.534 19.1156 130.534 18.9561Z" fill="#25AF8E"/>
</g>
<defs>
<filter id="filter0_d_2205_3857" x="0" y="0" width="149" height="34" filterUnits="userSpaceOnUse" color-interpolation-filters="sRGB">
<feFlood flood-opacity="0" result="BackgroundImageFix"/>
<feColorMatrix in="SourceAlpha" type="matrix" values="0 0 0 0 0 0 0 0 0 0 0 0 0 0 0 0 0 0 127 0" result="hardAlpha"/>
<feOffset dy="2"/>
<feColorMatrix type="matrix" values="0 0 0 0 0 0 0 0 0 0 0 0 0 0 0 0 0 0 0.016 0"/>
<feBlend mode="normal" in2="BackgroundImageFix" result="effect1_dropShadow_2205_3857"/>
<feBlend mode="normal" in="SourceGraphic" in2="effect1_dropShadow_2205_3857" result="shape"/>
</filter>
<clipPath id="clip0_2205_3857">
<rect width="20" height="20" fill="white" transform="translate(16 6)"/>
</clipPath>
</defs>
</svg>
