<svg width="142" height="49" viewBox="0 0 142 49" fill="none" xmlns="http://www.w3.org/2000/svg">
<path d="M59.7912 1.14551L53.7852 16.8535H56.5352L57.9652 12.9155H64.5432L65.9732 16.8535H68.7232L62.7172 1.14551H59.7912ZM58.7352 10.8035L61.2212 3.91752H61.3092L63.7732 10.8035H58.7352ZM70.2568 0.837515V16.8535H72.7648V0.837515H70.2568ZM75.8427 0.837515V16.8535H78.3507V0.837515H75.8427ZM0.808555 32.1455V47.8535H12.5126V45.6535H3.38255V40.9015H11.6106V38.7015H3.38255V34.3455H12.1386V32.1455H0.808555ZM20.5778 36.1715C19.8958 36.1715 19.2798 36.3035 18.7078 36.5895C18.1578 36.8535 17.6518 37.2715 17.2118 37.7995V36.4795H14.7038V47.8535H17.2118V41.0115C17.2998 40.1095 17.6078 39.4055 18.1358 38.9215C18.5978 38.4815 19.1478 38.2615 19.7638 38.2615C21.4798 38.2615 22.3378 39.1855 22.3378 41.0555V47.8535H24.8458V40.8355C24.8458 37.7115 23.4158 36.1715 20.5778 36.1715ZM27.487 31.8375V47.8535H29.995V41.4955C29.995 40.5275 30.215 39.7575 30.677 39.1415C31.117 38.5255 31.733 38.2175 32.525 38.2175C33.383 38.2175 34.021 38.4815 34.461 39.0315C34.835 39.5375 35.033 40.2855 35.033 41.2535V47.8535H37.541V40.8135C37.541 39.2955 37.211 38.1515 36.573 37.3815C35.891 36.5675 34.857 36.1715 33.471 36.1715C32.745 36.1715 32.107 36.3035 31.557 36.5895C30.941 36.8975 30.413 37.3595 29.995 37.9975V31.8375H27.487ZM45.3543 36.1715C43.9023 36.1715 42.7583 36.4135 41.9223 36.9415C40.9323 37.5135 40.3163 38.4375 40.0743 39.6915L42.5603 39.8895C42.6923 39.2955 43.0223 38.8555 43.5063 38.5695C43.9243 38.3055 44.4743 38.1955 45.1783 38.1955C46.8063 38.1955 47.6203 38.9215 47.6203 40.4175V40.8575L45.1343 40.9235C43.4623 40.9675 42.1643 41.3195 41.2403 41.9795C40.2283 42.6615 39.7443 43.6515 39.7443 44.9275C39.7443 45.8735 40.0963 46.6435 40.8003 47.2595C41.4823 47.8535 42.4063 48.1615 43.5943 48.1615C44.5843 48.1615 45.4423 47.9855 46.1683 47.6555C46.8063 47.3475 47.3563 46.9295 47.7963 46.3575V47.8535H50.1283V40.5935C50.1283 39.2075 49.7763 38.1515 49.0723 37.4255C48.2803 36.5895 47.0263 36.1715 45.3543 36.1715ZM47.6203 42.6615V43.2335C47.6203 44.1135 47.2683 44.8395 46.6083 45.4115C45.9483 45.9615 45.1343 46.2475 44.1663 46.2475C43.6163 46.2475 43.1763 46.0935 42.8243 45.8295C42.4723 45.5655 42.3183 45.2355 42.3183 44.8395C42.3183 43.4755 43.3083 42.7715 45.3103 42.7275L47.6203 42.6615ZM58.6481 36.1715C57.9661 36.1715 57.3501 36.3035 56.7781 36.5895C56.2281 36.8535 55.7221 37.2715 55.2821 37.7995V36.4795H52.7741V47.8535H55.2821V41.0115C55.3701 40.1095 55.6781 39.4055 56.2061 38.9215C56.6681 38.4815 57.2181 38.2615 57.8341 38.2615C59.5501 38.2615 60.4081 39.1855 60.4081 41.0555V47.8535H62.9161V40.8355C62.9161 37.7115 61.4861 36.1715 58.6481 36.1715ZM70.6613 36.1715C68.8793 36.1715 67.4933 36.7655 66.5033 37.9535C65.5793 39.0315 65.1173 40.4395 65.1173 42.1555C65.1173 43.9155 65.5793 45.3455 66.5253 46.4455C67.4933 47.5895 68.8573 48.1615 70.6173 48.1615C72.0913 48.1615 73.2793 47.7875 74.1593 47.0615C75.0613 46.3135 75.6553 45.1695 75.9193 43.6295H73.4333C73.2353 45.2795 72.3113 46.1155 70.6393 46.1155C69.6713 46.1155 68.9453 45.7635 68.4613 45.0815C67.9333 44.3775 67.6913 43.3875 67.6913 42.1335C67.6913 40.9015 67.9553 39.9335 68.4833 39.2515C69.0113 38.5475 69.7373 38.2175 70.6613 38.2175C71.4093 38.2175 72.0253 38.3935 72.4873 38.7455C72.9273 39.0975 73.2353 39.6255 73.3893 40.3515H75.8753C75.6553 38.9215 75.0833 37.8655 74.1813 37.1615C73.3013 36.5015 72.1353 36.1715 70.6613 36.1715ZM82.7293 36.1715C81.0353 36.1715 79.6933 36.7435 78.7253 37.9095C77.7133 39.0535 77.2293 40.4615 77.2293 42.1555C77.2293 44.0475 77.7573 45.5215 78.8133 46.5995C79.8033 47.6335 81.1453 48.1615 82.8393 48.1615C84.3573 48.1615 85.6113 47.7215 86.6233 46.8635C87.4153 46.1595 87.9433 45.2575 88.2073 44.2015H85.6993C85.3913 44.8395 85.0613 45.3015 84.6873 45.5875C84.2033 45.9395 83.5873 46.1155 82.8173 46.1155C81.9153 46.1155 81.2113 45.8295 80.7273 45.2795C80.2433 44.7295 79.9573 43.9155 79.8693 42.8595H88.3833C88.3833 40.8135 87.9213 39.2075 87.0193 38.0635C86.0293 36.7875 84.5993 36.1715 82.7293 36.1715ZM82.7953 38.2175C84.5553 38.2175 85.5453 39.1195 85.7653 40.9675H79.9133C80.0673 40.0655 80.3753 39.3835 80.8373 38.9215C81.3213 38.4375 81.9593 38.2175 82.7953 38.2175ZM95.9598 36.1715C94.8598 36.1715 93.8258 36.6555 92.8798 37.6455V36.4795H90.3718V47.8535H92.8798V41.0335C92.8798 40.2855 93.0998 39.6255 93.5398 39.0975C93.9798 38.5255 94.5518 38.2615 95.2778 38.2615C96.7738 38.2615 97.5218 39.1195 97.5218 40.8575V47.8535H100.03V40.9015C100.03 40.0655 100.228 39.4275 100.668 38.9655C101.086 38.4815 101.592 38.2615 102.208 38.2615C103.088 38.2615 103.704 38.4595 104.1 38.8775C104.474 39.2735 104.672 39.9335 104.672 40.8355V47.8535H107.18V40.3955C107.18 39.1415 106.784 38.1295 106.036 37.3375C105.244 36.5455 104.276 36.1715 103.11 36.1715C102.34 36.1715 101.702 36.3035 101.196 36.5675C100.624 36.8315 100.074 37.3155 99.5458 38.0195C98.8198 36.7875 97.6318 36.1715 95.9598 36.1715ZM114.655 36.1715C112.961 36.1715 111.619 36.7435 110.651 37.9095C109.639 39.0535 109.155 40.4615 109.155 42.1555C109.155 44.0475 109.683 45.5215 110.739 46.5995C111.729 47.6335 113.071 48.1615 114.765 48.1615C116.283 48.1615 117.537 47.7215 118.549 46.8635C119.341 46.1595 119.869 45.2575 120.133 44.2015H117.625C117.317 44.8395 116.987 45.3015 116.613 45.5875C116.129 45.9395 115.513 46.1155 114.743 46.1155C113.841 46.1155 113.137 45.8295 112.653 45.2795C112.169 44.7295 111.883 43.9155 111.795 42.8595H120.309C120.309 40.8135 119.847 39.2075 118.945 38.0635C117.955 36.7875 116.525 36.1715 114.655 36.1715ZM114.721 38.2175C116.481 38.2175 117.471 39.1195 117.691 40.9675H111.839C111.993 40.0655 112.301 39.3835 112.763 38.9215C113.247 38.4375 113.885 38.2175 114.721 38.2175ZM128.172 36.1715C127.49 36.1715 126.874 36.3035 126.302 36.5895C125.752 36.8535 125.246 37.2715 124.806 37.7995V36.4795H122.298V47.8535H124.806V41.0115C124.894 40.1095 125.202 39.4055 125.73 38.9215C126.192 38.4815 126.742 38.2615 127.358 38.2615C129.074 38.2615 129.932 39.1855 129.932 41.0555V47.8535H132.44V40.8355C132.44 37.7115 131.01 36.1715 128.172 36.1715ZM138.645 32.8055L136.137 33.8395V36.4795H134.091V38.5475H136.137V44.9715C136.137 45.8955 136.357 46.5775 136.797 47.0615C137.259 47.5895 137.985 47.8535 138.975 47.8535H140.889V45.7855H139.393C139.129 45.7855 138.953 45.7195 138.821 45.5875C138.689 45.4335 138.645 45.2355 138.645 44.9715V38.5475H141.175V36.4795H138.645V32.8055Z" fill="white"/>
</svg>
