<svg width="100" height="100" viewBox="0 0 100 100" fill="none" xmlns="http://www.w3.org/2000/svg">
<path d="M0.5 50C0.5 22.6619 22.6619 0.5 50 0.5C77.3381 0.5 99.5 22.6619 99.5 50C99.5 77.3381 77.3381 99.5 50 99.5C22.6619 99.5 0.5 77.3381 0.5 50Z" fill="white" fill-opacity="0.14" stroke="#D9D9D9"/>
<path d="M70.3421 31.949V25.6206C70.3421 25.4562 70.2767 25.2982 70.1603 25.1818C70.0443 25.0653 69.8863 25 69.7219 25H24.6202C24.2779 25 24 25.2779 24 25.6206V67.2223C24 67.3867 24.0654 67.5447 24.1818 67.6607C24.2982 67.7771 24.4557 67.8425 24.6202 67.8425H52.8886C53.3504 71.2247 55.0271 74.3236 57.6057 76.5603C60.1839 78.7974 63.4883 80.0201 66.9017 79.9997C70.3152 79.9798 73.6048 78.7183 76.157 76.4513C78.7087 74.1843 80.3486 71.0661 80.7707 67.6785C81.1927 64.2909 80.3677 60.8659 78.45 58.0418C76.5323 55.2178 73.6525 53.1879 70.3485 52.331V31.949L70.3421 31.949ZM25.2415 26.2407H69.1012V31.949H25.2415V26.2407ZM79.6434 65.95V65.9504C79.6451 69.3522 78.2952 72.615 75.8906 75.0214C73.4865 77.4278 70.2244 78.7802 66.8226 78.7816C63.4209 78.7824 60.158 77.4321 57.7521 75.0275C55.3462 72.6224 53.9941 69.3605 53.9937 65.9586C53.9933 62.5567 55.3441 59.2945 57.7491 56.8885C60.1546 54.483 63.417 53.1319 66.8188 53.1319C70.2189 53.1349 73.479 54.4874 75.8832 56.8916C78.2878 59.2962 79.6398 62.5561 79.6434 65.9565V65.95ZM69.0957 52.0772C66.1406 51.5886 63.1071 52.0608 60.4402 53.4236H47.7707V54.6644L58.4487 54.6649C54.8703 57.3149 52.7595 61.504 52.7591 65.9572V66.5778H25.2418V33.1906H69.1015L69.0957 52.0772Z" fill="white" stroke="white" stroke-width="0.6"/>
<path d="M47.77 41.4766H64.2487V42.7174H47.77V41.4766Z" fill="white" stroke="white" stroke-width="0.6"/>
<path d="M41.6216 39.269L40.7344 38.4004L34.6601 44.5924L31.5517 41.5339L30.6831 42.4147L34.6786 46.3484L41.6216 39.269Z" fill="white" stroke="white" stroke-width="0.6"/>
<path d="M34.6591 56.5436L31.5507 53.485L30.6821 54.3658L34.6777 58.2995L41.6206 51.2202L40.7333 50.3516L34.6591 56.5436Z" fill="white" stroke="white" stroke-width="0.6"/>
<path d="M61.9541 65.8913L61.0854 66.772L65.081 70.7057L72.0239 63.6264L71.1366 62.7578L65.0624 68.9499L61.9541 65.8913Z" fill="white" stroke="white" stroke-width="0.6"/>
</svg>
