<svg width="100" height="62" viewBox="0 0 100 62" fill="none" xmlns="http://www.w3.org/2000/svg">
<path d="M6.28041 7.292L0.274414 23H3.02441L4.45441 19.062H11.0324L12.4624 23H15.2124L9.20641 7.292H6.28041ZM5.22441 16.95L7.71041 10.064H7.79841L10.2624 16.95H5.22441ZM22.2901 11.318C20.7941 11.318 19.6501 11.824 18.8581 12.836V11.626H16.5261V27.356H19.0341V21.438C19.9581 22.67 21.1021 23.308 22.4221 23.308C24.0501 23.308 25.3481 22.714 26.2721 21.526C27.1301 20.426 27.5701 19.04 27.5701 17.368C27.5701 15.608 27.1301 14.2 26.2501 13.1C25.2821 11.912 23.9621 11.318 22.2901 11.318ZM21.9161 13.342C23.0161 13.342 23.8301 13.738 24.3581 14.53C24.7761 15.19 24.9961 16.136 24.9961 17.368C24.9961 18.6 24.7541 19.546 24.2921 20.206C23.7641 20.91 22.9281 21.284 21.8281 21.284C21.0141 21.284 20.3541 20.954 19.8261 20.294C19.2321 19.568 18.9461 18.6 18.9461 17.412V17.236C18.9461 16.092 19.1661 15.19 19.6501 14.508C20.1781 13.716 20.9261 13.342 21.9161 13.342ZM35.5244 11.318C34.0284 11.318 32.8844 11.824 32.0924 12.836V11.626H29.7604V27.356H32.2684V21.438C33.1924 22.67 34.3364 23.308 35.6564 23.308C37.2844 23.308 38.5824 22.714 39.5064 21.526C40.3644 20.426 40.8044 19.04 40.8044 17.368C40.8044 15.608 40.3644 14.2 39.4844 13.1C38.5164 11.912 37.1964 11.318 35.5244 11.318ZM35.1504 13.342C36.2504 13.342 37.0644 13.738 37.5924 14.53C38.0104 15.19 38.2304 16.136 38.2304 17.368C38.2304 18.6 37.9884 19.546 37.5264 20.206C36.9984 20.91 36.1624 21.284 35.0624 21.284C34.2484 21.284 33.5884 20.954 33.0604 20.294C32.4664 19.568 32.1804 18.6 32.1804 17.412V17.236C32.1804 16.092 32.4004 15.19 32.8844 14.508C33.4124 13.716 34.1604 13.342 35.1504 13.342ZM48.3628 11.318C47.6588 11.318 47.0648 11.516 46.5588 11.934C46.1408 12.242 45.7888 12.682 45.4808 13.254V11.626H42.9948V23H45.4808V16.972C45.4808 16.004 45.7668 15.234 46.3828 14.64C46.9108 14.112 47.5048 13.87 48.1648 13.87C48.6928 13.87 49.2208 13.936 49.7928 14.112V11.604C49.3968 11.406 48.9128 11.318 48.3628 11.318ZM56.5033 11.318C54.7653 11.318 53.3793 11.868 52.3453 13.012C51.2893 14.134 50.7833 15.564 50.7833 17.324C50.7833 19.062 51.2893 20.492 52.3233 21.592C53.3793 22.736 54.7653 23.308 56.5033 23.308C58.2193 23.308 59.6273 22.736 60.6833 21.592C61.6953 20.492 62.2233 19.062 62.2233 17.324C62.2233 15.564 61.6953 14.134 60.6613 13.012C59.6053 11.868 58.2193 11.318 56.5033 11.318ZM56.5033 13.364C57.5373 13.364 58.3513 13.76 58.9233 14.596C59.4073 15.3 59.6713 16.224 59.6713 17.324C59.6713 18.402 59.4073 19.304 58.9233 20.03C58.3513 20.844 57.5373 21.262 56.5033 21.262C55.4473 21.262 54.6553 20.844 54.0833 20.03C53.5993 19.326 53.3573 18.424 53.3573 17.324C53.3573 16.224 53.5993 15.3 54.0833 14.596C54.6553 13.76 55.4473 13.364 56.5033 13.364ZM63.2047 11.626L67.4067 23H69.9147L74.1167 11.626H71.3887L68.6607 19.876L65.9327 11.626H63.2047ZM80.7136 11.318C79.2616 11.318 78.1176 11.56 77.2816 12.088C76.2916 12.66 75.6756 13.584 75.4336 14.838L77.9196 15.036C78.0516 14.442 78.3816 14.002 78.8656 13.716C79.2836 13.452 79.8336 13.342 80.5376 13.342C82.1656 13.342 82.9796 14.068 82.9796 15.564V16.004L80.4936 16.07C78.8216 16.114 77.5236 16.466 76.5996 17.126C75.5876 17.808 75.1036 18.798 75.1036 20.074C75.1036 21.02 75.4556 21.79 76.1596 22.406C76.8416 23 77.7656 23.308 78.9536 23.308C79.9436 23.308 80.8016 23.132 81.5276 22.802C82.1656 22.494 82.7156 22.076 83.1556 21.504V23H85.4876V15.74C85.4876 14.354 85.1356 13.298 84.4316 12.572C83.6396 11.736 82.3856 11.318 80.7136 11.318ZM82.9796 17.808V18.38C82.9796 19.26 82.6276 19.986 81.9676 20.558C81.3076 21.108 80.4936 21.394 79.5256 21.394C78.9756 21.394 78.5356 21.24 78.1836 20.976C77.8316 20.712 77.6776 20.382 77.6776 19.986C77.6776 18.622 78.6676 17.918 80.6696 17.874L82.9796 17.808ZM88.3535 6.984V23H90.8615V6.984H88.3535ZM32.2363 38.292V54H43.2803V51.8H34.7883V38.292H32.2363ZM46.7298 37.984C46.2458 37.984 45.8498 38.138 45.5198 38.446C45.1898 38.754 45.0358 39.15 45.0358 39.634C45.0358 40.118 45.1898 40.514 45.5198 40.844C45.8498 41.152 46.2458 41.306 46.7298 41.306C47.2138 41.306 47.6098 41.152 47.9398 40.844C48.2698 40.536 48.4458 40.118 48.4458 39.634C48.4458 39.15 48.2698 38.754 47.9618 38.446C47.6318 38.138 47.2138 37.984 46.7298 37.984ZM45.4758 42.626V54H47.9838V42.626H45.4758ZM55.3844 42.318C53.9764 42.318 52.8544 42.604 51.9964 43.22C51.1164 43.792 50.6984 44.606 50.6984 45.662C50.6984 46.652 51.1384 47.422 52.0184 47.972C52.5684 48.324 53.5144 48.654 54.8564 48.962C56.0004 49.226 56.7484 49.424 57.1004 49.6C57.7604 49.908 58.0904 50.326 58.0904 50.854C58.0904 51.778 57.2104 52.262 55.4504 52.262C54.6144 52.262 54.0204 52.108 53.6464 51.844C53.2724 51.536 53.0084 51.03 52.8764 50.304H50.4344C50.6764 52.966 52.3704 54.308 55.5384 54.308C58.9484 54.308 60.6644 53.098 60.6644 50.678C60.6644 49.666 60.2024 48.852 59.3004 48.28C58.6844 47.862 57.7164 47.51 56.4404 47.202C55.2964 46.916 54.5484 46.696 54.1744 46.542C53.5584 46.278 53.2724 45.948 53.2724 45.596C53.2724 45.156 53.4484 44.848 53.8444 44.65C54.1744 44.452 54.6804 44.364 55.3404 44.364C56.1104 44.364 56.6824 44.474 57.0564 44.716C57.4084 44.936 57.6724 45.354 57.8484 45.926H60.2904C60.0264 43.506 58.3764 42.318 55.3844 42.318ZM66.217 38.952L63.709 39.986V42.626H61.663V44.694H63.709V51.118C63.709 52.042 63.929 52.724 64.369 53.208C64.831 53.736 65.557 54 66.547 54H68.461V51.932H66.965C66.701 51.932 66.525 51.866 66.393 51.734C66.261 51.58 66.217 51.382 66.217 51.118V44.694H68.747V42.626H66.217V38.952Z" fill="white"/>
</svg>
