<svg width="245" height="34" viewBox="0 0 245 34" fill="none" xmlns="http://www.w3.org/2000/svg">
<g filter="url(#filter0_d_2014_3849)">
<rect width="245" height="32" rx="16" fill="white"/>
<g clip-path="url(#clip0_2014_3849)">
<path d="M26.0003 7.66602C21.4003 7.66602 17.667 11.3993 17.667 15.9993C17.667 20.5993 21.4003 24.3327 26.0003 24.3327C30.6003 24.3327 34.3337 20.5993 34.3337 15.9993C34.3337 11.3993 30.6003 7.66602 26.0003 7.66602ZM26.0003 22.666C22.3253 22.666 19.3337 19.6743 19.3337 15.9993C19.3337 12.3243 22.3253 9.33268 26.0003 9.33268C29.6753 9.33268 32.667 12.3243 32.667 15.9993C32.667 19.6743 29.6753 22.666 26.0003 22.666ZM29.8253 12.316L24.3337 17.8077L22.1753 15.6577L21.0003 16.8327L24.3337 20.166L31.0003 13.4993L29.8253 12.316Z" fill="#3E5196"/>
</g>
<path d="M48.8496 17.4521H46.3135V15.8525H48.8496C49.2415 15.8525 49.5605 15.7887 49.8066 15.6611C50.0527 15.529 50.2327 15.3467 50.3467 15.1143C50.4606 14.8818 50.5176 14.6198 50.5176 14.3281C50.5176 14.0319 50.4606 13.7562 50.3467 13.501C50.2327 13.2458 50.0527 13.0407 49.8066 12.8857C49.5605 12.7308 49.2415 12.6533 48.8496 12.6533H47.0244V21H44.9736V11.0469H48.8496C49.6289 11.0469 50.2965 11.1882 50.8525 11.4707C51.4131 11.7487 51.8415 12.1338 52.1377 12.626C52.4339 13.1182 52.582 13.681 52.582 14.3145C52.582 14.957 52.4339 15.513 52.1377 15.9824C51.8415 16.4518 51.4131 16.8141 50.8525 17.0693C50.2965 17.3245 49.6289 17.4521 48.8496 17.4521ZM60.3955 19.4004V21H55.3848V19.4004H60.3955ZM56.0479 11.0469V21H53.9971V11.0469H56.0479ZM69.2959 15.791V16.2627C69.2959 17.0192 69.1934 17.6982 68.9883 18.2998C68.7832 18.9014 68.4938 19.4141 68.1201 19.8379C67.7464 20.2572 67.2998 20.5785 66.7803 20.8018C66.2653 21.0251 65.6934 21.1367 65.0645 21.1367C64.4401 21.1367 63.8682 21.0251 63.3486 20.8018C62.8337 20.5785 62.387 20.2572 62.0088 19.8379C61.6305 19.4141 61.3366 18.9014 61.127 18.2998C60.9219 17.6982 60.8193 17.0192 60.8193 16.2627V15.791C60.8193 15.0299 60.9219 14.3509 61.127 13.7539C61.332 13.1523 61.6214 12.6396 61.9951 12.2158C62.3734 11.792 62.82 11.4684 63.335 11.2451C63.8545 11.0218 64.4264 10.9102 65.0508 10.9102C65.6797 10.9102 66.2516 11.0218 66.7666 11.2451C67.2861 11.4684 67.7327 11.792 68.1064 12.2158C68.4847 12.6396 68.7764 13.1523 68.9814 13.7539C69.1911 14.3509 69.2959 15.0299 69.2959 15.791ZM67.2246 16.2627V15.7773C67.2246 15.2487 67.1768 14.7839 67.0811 14.3828C66.9854 13.9818 66.8441 13.6445 66.6572 13.3711C66.4704 13.0977 66.2425 12.8926 65.9736 12.7559C65.7048 12.6146 65.3971 12.5439 65.0508 12.5439C64.7044 12.5439 64.3968 12.6146 64.1279 12.7559C63.8636 12.8926 63.638 13.0977 63.4512 13.3711C63.2689 13.6445 63.1299 13.9818 63.0342 14.3828C62.9385 14.7839 62.8906 15.2487 62.8906 15.7773V16.2627C62.8906 16.7868 62.9385 17.2516 63.0342 17.6572C63.1299 18.0583 63.2712 18.3978 63.458 18.6758C63.6449 18.9492 63.8727 19.1566 64.1416 19.2979C64.4105 19.4391 64.7181 19.5098 65.0645 19.5098C65.4108 19.5098 65.7184 19.4391 65.9873 19.2979C66.2562 19.1566 66.4818 18.9492 66.6641 18.6758C66.8464 18.3978 66.9854 18.0583 67.0811 17.6572C67.1768 17.2516 67.2246 16.7868 67.2246 16.2627ZM77.1914 19.5986C77.4329 19.5986 77.6471 19.5531 77.834 19.4619C78.0208 19.3662 78.1667 19.234 78.2715 19.0654C78.3809 18.8923 78.4378 18.6895 78.4424 18.457H80.2949C80.2904 18.9766 80.1514 19.4391 79.8779 19.8447C79.6045 20.2458 79.2376 20.5625 78.7773 20.7949C78.3171 21.0228 77.8021 21.1367 77.2324 21.1367C76.6582 21.1367 76.1569 21.041 75.7285 20.8496C75.3047 20.6582 74.9515 20.3939 74.6689 20.0566C74.3864 19.7148 74.1745 19.3184 74.0332 18.8672C73.8919 18.4115 73.8213 17.9238 73.8213 17.4043V17.2061C73.8213 16.682 73.8919 16.1943 74.0332 15.7432C74.1745 15.2874 74.3864 14.891 74.6689 14.5537C74.9515 14.2119 75.3047 13.9453 75.7285 13.7539C76.1523 13.5625 76.6491 13.4668 77.2188 13.4668C77.8249 13.4668 78.3558 13.583 78.8115 13.8154C79.2718 14.0479 79.6318 14.3805 79.8916 14.8135C80.1559 15.2419 80.2904 15.75 80.2949 16.3379H78.4424C78.4378 16.0918 78.3854 15.8685 78.2852 15.668C78.1895 15.4674 78.0482 15.3079 77.8613 15.1895C77.679 15.0664 77.4535 15.0049 77.1846 15.0049C76.8975 15.0049 76.6628 15.0664 76.4805 15.1895C76.2982 15.3079 76.1569 15.472 76.0566 15.6816C75.9564 15.8867 75.8857 16.1214 75.8447 16.3857C75.8083 16.6455 75.79 16.9189 75.79 17.2061V17.4043C75.79 17.6914 75.8083 17.9671 75.8447 18.2314C75.8812 18.4958 75.9495 18.7305 76.0498 18.9355C76.1546 19.1406 76.2982 19.3024 76.4805 19.4209C76.6628 19.5394 76.8997 19.5986 77.1914 19.5986ZM81.1221 17.377V17.2334C81.1221 16.6911 81.1995 16.1921 81.3545 15.7363C81.5094 15.276 81.735 14.8773 82.0312 14.54C82.3275 14.2028 82.6921 13.9408 83.125 13.7539C83.5579 13.5625 84.0547 13.4668 84.6152 13.4668C85.1758 13.4668 85.6748 13.5625 86.1123 13.7539C86.5498 13.9408 86.9167 14.2028 87.2129 14.54C87.5137 14.8773 87.7415 15.276 87.8965 15.7363C88.0514 16.1921 88.1289 16.6911 88.1289 17.2334V17.377C88.1289 17.9147 88.0514 18.4137 87.8965 18.874C87.7415 19.3298 87.5137 19.7285 87.2129 20.0703C86.9167 20.4076 86.5521 20.6696 86.1191 20.8564C85.6862 21.0433 85.1895 21.1367 84.6289 21.1367C84.0684 21.1367 83.5693 21.0433 83.1318 20.8564C82.6989 20.6696 82.332 20.4076 82.0312 20.0703C81.735 19.7285 81.5094 19.3298 81.3545 18.874C81.1995 18.4137 81.1221 17.9147 81.1221 17.377ZM83.0908 17.2334V17.377C83.0908 17.6868 83.1182 17.9762 83.1729 18.2451C83.2275 18.514 83.3141 18.751 83.4326 18.9561C83.5557 19.1566 83.7152 19.3138 83.9111 19.4277C84.1071 19.5417 84.3464 19.5986 84.6289 19.5986C84.9023 19.5986 85.137 19.5417 85.333 19.4277C85.529 19.3138 85.6862 19.1566 85.8047 18.9561C85.9232 18.751 86.0098 18.514 86.0645 18.2451C86.1237 17.9762 86.1533 17.6868 86.1533 17.377V17.2334C86.1533 16.9326 86.1237 16.6501 86.0645 16.3857C86.0098 16.1169 85.9209 15.8799 85.7979 15.6748C85.6794 15.4652 85.5221 15.3011 85.3262 15.1826C85.1302 15.0641 84.8932 15.0049 84.6152 15.0049C84.3372 15.0049 84.1003 15.0641 83.9043 15.1826C83.7129 15.3011 83.5557 15.4652 83.4326 15.6748C83.3141 15.8799 83.2275 16.1169 83.1729 16.3857C83.1182 16.6501 83.0908 16.9326 83.0908 17.2334ZM91.2666 15.1826V21H89.2979V13.6035H91.1436L91.2666 15.1826ZM90.9795 17.042H90.4463C90.4463 16.4951 90.5169 16.0029 90.6582 15.5654C90.7995 15.1234 90.9977 14.7474 91.2529 14.4375C91.5081 14.123 91.8112 13.8838 92.1621 13.7197C92.5176 13.5511 92.9141 13.4668 93.3516 13.4668C93.6979 13.4668 94.0146 13.5169 94.3018 13.6172C94.5889 13.7174 94.835 13.877 95.04 14.0957C95.2497 14.3145 95.4092 14.6038 95.5186 14.9639C95.6325 15.3239 95.6895 15.7637 95.6895 16.2832V21H93.707V16.2764C93.707 15.9482 93.6615 15.693 93.5703 15.5107C93.4792 15.3285 93.3447 15.2008 93.167 15.1279C92.9938 15.0505 92.7796 15.0117 92.5244 15.0117C92.2601 15.0117 92.0299 15.0641 91.834 15.1689C91.6426 15.2738 91.4831 15.4196 91.3555 15.6064C91.2324 15.7887 91.139 16.0029 91.0752 16.249C91.0114 16.4951 90.9795 16.7594 90.9795 17.042ZM99.6475 21H97.6719V13.2686C97.6719 12.6396 97.7995 12.1087 98.0547 11.6758C98.3145 11.2428 98.6836 10.9147 99.1621 10.6914C99.6452 10.4681 100.229 10.3564 100.912 10.3564C101.299 10.3564 101.675 10.3952 102.04 10.4727C102.405 10.5456 102.781 10.6413 103.168 10.7598L102.881 12.3389C102.63 12.2614 102.361 12.1885 102.074 12.1201C101.787 12.0518 101.441 12.0176 101.035 12.0176C100.579 12.0176 100.233 12.1247 99.9961 12.3389C99.7637 12.5485 99.6475 12.8584 99.6475 13.2686V21ZM101.117 13.6035V14.998H96.5713V13.6035H101.117ZM104.084 13.6035V21H102.108V13.6035H104.084ZM107.7 15.2168V21H105.731V13.6035H107.584L107.7 15.2168ZM109.929 13.5557L109.895 15.3809C109.799 15.3672 109.683 15.3558 109.546 15.3467C109.414 15.333 109.293 15.3262 109.184 15.3262C108.906 15.3262 108.664 15.3626 108.459 15.4355C108.258 15.5039 108.09 15.6064 107.953 15.7432C107.821 15.8799 107.721 16.0462 107.652 16.2422C107.589 16.4382 107.552 16.6615 107.543 16.9121L107.146 16.7891C107.146 16.3105 107.194 15.8708 107.29 15.4697C107.386 15.0641 107.525 14.7109 107.707 14.4102C107.894 14.1094 108.122 13.877 108.391 13.7129C108.66 13.5488 108.967 13.4668 109.313 13.4668C109.423 13.4668 109.535 13.4759 109.648 13.4941C109.762 13.5078 109.856 13.5283 109.929 13.5557ZM112.827 15.1348V21H110.852V13.6035H112.704L112.827 15.1348ZM112.554 17.042H112.007C112.007 16.527 112.068 16.0531 112.191 15.6201C112.319 15.1826 112.504 14.8044 112.745 14.4854C112.991 14.1618 113.294 13.9111 113.654 13.7334C114.014 13.5557 114.431 13.4668 114.905 13.4668C115.233 13.4668 115.534 13.5169 115.808 13.6172C116.081 13.7129 116.316 13.8656 116.512 14.0752C116.712 14.2803 116.867 14.5492 116.977 14.8818C117.086 15.21 117.141 15.6042 117.141 16.0645V21H115.172V16.2832C115.172 15.946 115.126 15.6862 115.035 15.5039C114.944 15.3216 114.814 15.194 114.646 15.1211C114.481 15.0482 114.283 15.0117 114.051 15.0117C113.796 15.0117 113.572 15.0641 113.381 15.1689C113.194 15.2738 113.039 15.4196 112.916 15.6064C112.793 15.7887 112.702 16.0029 112.643 16.249C112.583 16.4951 112.554 16.7594 112.554 17.042ZM116.956 16.8164L116.252 16.9053C116.252 16.4222 116.311 15.9733 116.43 15.5586C116.553 15.1439 116.733 14.7793 116.97 14.4648C117.211 14.1504 117.51 13.9066 117.865 13.7334C118.221 13.5557 118.631 13.4668 119.096 13.4668C119.451 13.4668 119.775 13.5192 120.066 13.624C120.358 13.7243 120.606 13.8861 120.812 14.1094C121.021 14.3281 121.181 14.6152 121.29 14.9707C121.404 15.3262 121.461 15.7614 121.461 16.2764V21H119.485V16.2764C119.485 15.9346 119.44 15.6748 119.349 15.4971C119.262 15.3148 119.134 15.1895 118.966 15.1211C118.802 15.0482 118.606 15.0117 118.378 15.0117C118.141 15.0117 117.934 15.0596 117.756 15.1553C117.578 15.2464 117.43 15.374 117.312 15.5381C117.193 15.7021 117.104 15.8936 117.045 16.1123C116.986 16.3265 116.956 16.5612 116.956 16.8164ZM128.98 21H126.998V12.9473C126.998 12.3867 127.107 11.915 127.326 11.5322C127.549 11.1449 127.862 10.8532 128.263 10.6572C128.668 10.4567 129.149 10.3564 129.705 10.3564C129.887 10.3564 130.063 10.3701 130.231 10.3975C130.4 10.4202 130.564 10.4499 130.724 10.4863L130.703 11.9697C130.617 11.9469 130.525 11.931 130.43 11.9219C130.334 11.9128 130.222 11.9082 130.095 11.9082C129.858 11.9082 129.655 11.9492 129.486 12.0312C129.322 12.1087 129.197 12.2249 129.11 12.3799C129.024 12.5348 128.98 12.724 128.98 12.9473V21ZM130.457 13.6035V14.998H125.897V13.6035H130.457ZM131.175 17.377V17.2334C131.175 16.6911 131.252 16.1921 131.407 15.7363C131.562 15.276 131.788 14.8773 132.084 14.54C132.38 14.2028 132.745 13.9408 133.178 13.7539C133.611 13.5625 134.107 13.4668 134.668 13.4668C135.229 13.4668 135.728 13.5625 136.165 13.7539C136.603 13.9408 136.969 14.2028 137.266 14.54C137.566 14.8773 137.794 15.276 137.949 15.7363C138.104 16.1921 138.182 16.6911 138.182 17.2334V17.377C138.182 17.9147 138.104 18.4137 137.949 18.874C137.794 19.3298 137.566 19.7285 137.266 20.0703C136.969 20.4076 136.605 20.6696 136.172 20.8564C135.739 21.0433 135.242 21.1367 134.682 21.1367C134.121 21.1367 133.622 21.0433 133.185 20.8564C132.752 20.6696 132.385 20.4076 132.084 20.0703C131.788 19.7285 131.562 19.3298 131.407 18.874C131.252 18.4137 131.175 17.9147 131.175 17.377ZM133.144 17.2334V17.377C133.144 17.6868 133.171 17.9762 133.226 18.2451C133.28 18.514 133.367 18.751 133.485 18.9561C133.608 19.1566 133.768 19.3138 133.964 19.4277C134.16 19.5417 134.399 19.5986 134.682 19.5986C134.955 19.5986 135.19 19.5417 135.386 19.4277C135.582 19.3138 135.739 19.1566 135.857 18.9561C135.976 18.751 136.062 18.514 136.117 18.2451C136.176 17.9762 136.206 17.6868 136.206 17.377V17.2334C136.206 16.9326 136.176 16.6501 136.117 16.3857C136.062 16.1169 135.974 15.8799 135.851 15.6748C135.732 15.4652 135.575 15.3011 135.379 15.1826C135.183 15.0641 134.946 15.0049 134.668 15.0049C134.39 15.0049 134.153 15.0641 133.957 15.1826C133.766 15.3011 133.608 15.4652 133.485 15.6748C133.367 15.8799 133.28 16.1169 133.226 16.3857C133.171 16.6501 133.144 16.9326 133.144 17.2334ZM141.36 15.2168V21H139.392V13.6035H141.244L141.36 15.2168ZM143.589 13.5557L143.555 15.3809C143.459 15.3672 143.343 15.3558 143.206 15.3467C143.074 15.333 142.953 15.3262 142.844 15.3262C142.566 15.3262 142.324 15.3626 142.119 15.4355C141.919 15.5039 141.75 15.6064 141.613 15.7432C141.481 15.8799 141.381 16.0462 141.312 16.2422C141.249 16.4382 141.212 16.6615 141.203 16.9121L140.807 16.7891C140.807 16.3105 140.854 15.8708 140.95 15.4697C141.046 15.0641 141.185 14.7109 141.367 14.4102C141.554 14.1094 141.782 13.877 142.051 13.7129C142.32 13.5488 142.627 13.4668 142.974 13.4668C143.083 13.4668 143.195 13.4759 143.309 13.4941C143.423 13.5078 143.516 13.5283 143.589 13.5557ZM152.373 19.3867V10.5H154.355V21H152.571L152.373 19.3867ZM147.697 17.3906V17.2471C147.697 16.682 147.761 16.1693 147.889 15.709C148.016 15.2441 148.203 14.8454 148.449 14.5127C148.695 14.18 148.998 13.9225 149.358 13.7402C149.718 13.5579 150.129 13.4668 150.589 13.4668C151.022 13.4668 151.4 13.5579 151.724 13.7402C152.052 13.9225 152.33 14.1823 152.558 14.5195C152.79 14.8522 152.977 15.2464 153.118 15.7021C153.259 16.1533 153.362 16.6478 153.426 17.1855V17.5C153.362 18.015 153.259 18.4935 153.118 18.9355C152.977 19.3776 152.79 19.765 152.558 20.0977C152.33 20.4258 152.052 20.681 151.724 20.8633C151.396 21.0456 151.013 21.1367 150.575 21.1367C150.115 21.1367 149.705 21.0433 149.345 20.8564C148.989 20.6696 148.688 20.4076 148.442 20.0703C148.201 19.7331 148.016 19.3366 147.889 18.8809C147.761 18.4251 147.697 17.9284 147.697 17.3906ZM149.666 17.2471V17.3906C149.666 17.696 149.689 17.9808 149.734 18.2451C149.785 18.5094 149.864 18.7441 149.974 18.9492C150.088 19.1497 150.233 19.307 150.411 19.4209C150.593 19.5303 150.814 19.585 151.074 19.585C151.411 19.585 151.689 19.5098 151.908 19.3594C152.127 19.2044 152.293 18.9925 152.407 18.7236C152.526 18.4548 152.594 18.1449 152.612 17.7939V16.8984C152.599 16.6113 152.558 16.3538 152.489 16.126C152.425 15.8936 152.33 15.6953 152.202 15.5312C152.079 15.3672 151.924 15.2396 151.737 15.1484C151.555 15.0573 151.339 15.0117 151.088 15.0117C150.833 15.0117 150.614 15.071 150.432 15.1895C150.249 15.3034 150.101 15.4606 149.987 15.6611C149.878 15.8617 149.796 16.0986 149.741 16.3721C149.691 16.641 149.666 16.9326 149.666 17.2471ZM159.298 21.1367C158.724 21.1367 158.209 21.0456 157.753 20.8633C157.297 20.6764 156.91 20.4189 156.591 20.0908C156.276 19.7627 156.035 19.3822 155.866 18.9492C155.698 18.5117 155.613 18.0469 155.613 17.5547V17.2812C155.613 16.7207 155.693 16.208 155.853 15.7432C156.012 15.2783 156.24 14.875 156.536 14.5332C156.837 14.1914 157.201 13.9294 157.63 13.7471C158.058 13.5602 158.541 13.4668 159.079 13.4668C159.603 13.4668 160.068 13.5534 160.474 13.7266C160.879 13.8997 161.219 14.1458 161.492 14.4648C161.77 14.7839 161.98 15.1667 162.121 15.6133C162.262 16.0553 162.333 16.5475 162.333 17.0898V17.9102H156.454V16.5977H160.398V16.4473C160.398 16.1738 160.348 15.93 160.248 15.7158C160.152 15.4971 160.007 15.3239 159.811 15.1963C159.615 15.0687 159.364 15.0049 159.059 15.0049C158.799 15.0049 158.576 15.0618 158.389 15.1758C158.202 15.2897 158.049 15.4492 157.931 15.6543C157.817 15.8594 157.73 16.1009 157.671 16.3789C157.616 16.6523 157.589 16.9531 157.589 17.2812V17.5547C157.589 17.8509 157.63 18.1243 157.712 18.375C157.799 18.6257 157.919 18.8421 158.074 19.0244C158.234 19.2067 158.425 19.348 158.648 19.4482C158.876 19.5485 159.134 19.5986 159.421 19.5986C159.776 19.5986 160.107 19.5303 160.412 19.3936C160.722 19.2523 160.989 19.0404 161.212 18.7578L162.169 19.7969C162.014 20.0202 161.802 20.2344 161.533 20.4395C161.269 20.6445 160.95 20.8132 160.576 20.9453C160.202 21.0729 159.776 21.1367 159.298 21.1367ZM165.874 19.5645L167.515 13.6035H169.572L167.077 21H165.833L165.874 19.5645ZM164.746 13.6035L166.394 19.5713L166.428 21H165.177L162.682 13.6035H164.746ZM173.763 21.1367C173.188 21.1367 172.674 21.0456 172.218 20.8633C171.762 20.6764 171.375 20.4189 171.056 20.0908C170.741 19.7627 170.5 19.3822 170.331 18.9492C170.162 18.5117 170.078 18.0469 170.078 17.5547V17.2812C170.078 16.7207 170.158 16.208 170.317 15.7432C170.477 15.2783 170.705 14.875 171.001 14.5332C171.302 14.1914 171.666 13.9294 172.095 13.7471C172.523 13.5602 173.006 13.4668 173.544 13.4668C174.068 13.4668 174.533 13.5534 174.938 13.7266C175.344 13.8997 175.684 14.1458 175.957 14.4648C176.235 14.7839 176.445 15.1667 176.586 15.6133C176.727 16.0553 176.798 16.5475 176.798 17.0898V17.9102H170.919V16.5977H174.863V16.4473C174.863 16.1738 174.813 15.93 174.713 15.7158C174.617 15.4971 174.471 15.3239 174.275 15.1963C174.079 15.0687 173.829 15.0049 173.523 15.0049C173.264 15.0049 173.04 15.0618 172.854 15.1758C172.667 15.2897 172.514 15.4492 172.396 15.6543C172.282 15.8594 172.195 16.1009 172.136 16.3789C172.081 16.6523 172.054 16.9531 172.054 17.2812V17.5547C172.054 17.8509 172.095 18.1243 172.177 18.375C172.263 18.6257 172.384 18.8421 172.539 19.0244C172.699 19.2067 172.89 19.348 173.113 19.4482C173.341 19.5485 173.599 19.5986 173.886 19.5986C174.241 19.5986 174.572 19.5303 174.877 19.3936C175.187 19.2523 175.453 19.0404 175.677 18.7578L176.634 19.7969C176.479 20.0202 176.267 20.2344 175.998 20.4395C175.734 20.6445 175.415 20.8132 175.041 20.9453C174.667 21.0729 174.241 21.1367 173.763 21.1367ZM179.997 10.5V21H178.021V10.5H179.997ZM181.31 17.377V17.2334C181.31 16.6911 181.387 16.1921 181.542 15.7363C181.697 15.276 181.923 14.8773 182.219 14.54C182.515 14.2028 182.88 13.9408 183.312 13.7539C183.745 13.5625 184.242 13.4668 184.803 13.4668C185.363 13.4668 185.862 13.5625 186.3 13.7539C186.737 13.9408 187.104 14.2028 187.4 14.54C187.701 14.8773 187.929 15.276 188.084 15.7363C188.239 16.1921 188.316 16.6911 188.316 17.2334V17.377C188.316 17.9147 188.239 18.4137 188.084 18.874C187.929 19.3298 187.701 19.7285 187.4 20.0703C187.104 20.4076 186.74 20.6696 186.307 20.8564C185.874 21.0433 185.377 21.1367 184.816 21.1367C184.256 21.1367 183.757 21.0433 183.319 20.8564C182.886 20.6696 182.52 20.4076 182.219 20.0703C181.923 19.7285 181.697 19.3298 181.542 18.874C181.387 18.4137 181.31 17.9147 181.31 17.377ZM183.278 17.2334V17.377C183.278 17.6868 183.306 17.9762 183.36 18.2451C183.415 18.514 183.502 18.751 183.62 18.9561C183.743 19.1566 183.903 19.3138 184.099 19.4277C184.295 19.5417 184.534 19.5986 184.816 19.5986C185.09 19.5986 185.325 19.5417 185.521 19.4277C185.716 19.3138 185.874 19.1566 185.992 18.9561C186.111 18.751 186.197 18.514 186.252 18.2451C186.311 17.9762 186.341 17.6868 186.341 17.377V17.2334C186.341 16.9326 186.311 16.6501 186.252 16.3857C186.197 16.1169 186.108 15.8799 185.985 15.6748C185.867 15.4652 185.71 15.3011 185.514 15.1826C185.318 15.0641 185.081 15.0049 184.803 15.0049C184.525 15.0049 184.288 15.0641 184.092 15.1826C183.9 15.3011 183.743 15.4652 183.62 15.6748C183.502 15.8799 183.415 16.1169 183.36 16.3857C183.306 16.6501 183.278 16.9326 183.278 17.2334ZM191.495 15.0254V23.8438H189.526V13.6035H191.352L191.495 15.0254ZM196.178 17.2197V17.3633C196.178 17.901 196.114 18.4001 195.986 18.8604C195.863 19.3206 195.681 19.7217 195.439 20.0635C195.198 20.4007 194.897 20.665 194.537 20.8564C194.182 21.0433 193.771 21.1367 193.307 21.1367C192.855 21.1367 192.464 21.0456 192.131 20.8633C191.798 20.681 191.518 20.4258 191.29 20.0977C191.067 19.765 190.887 19.3799 190.75 18.9424C190.613 18.5049 190.508 18.0355 190.436 17.5342V17.1582C190.508 16.6204 190.613 16.1283 190.75 15.6816C190.887 15.2305 191.067 14.8408 191.29 14.5127C191.518 14.18 191.796 13.9225 192.124 13.7402C192.457 13.5579 192.846 13.4668 193.293 13.4668C193.762 13.4668 194.175 13.5557 194.53 13.7334C194.89 13.9111 195.191 14.1663 195.433 14.499C195.679 14.8317 195.863 15.2282 195.986 15.6885C196.114 16.1488 196.178 16.6592 196.178 17.2197ZM194.202 17.3633V17.2197C194.202 16.9053 194.175 16.6159 194.12 16.3516C194.07 16.0827 193.988 15.848 193.874 15.6475C193.765 15.4469 193.619 15.292 193.437 15.1826C193.259 15.0687 193.042 15.0117 192.787 15.0117C192.518 15.0117 192.288 15.055 192.097 15.1416C191.91 15.2282 191.757 15.3535 191.639 15.5176C191.52 15.6816 191.431 15.8776 191.372 16.1055C191.313 16.3333 191.276 16.5908 191.263 16.8779V17.8281C191.285 18.1654 191.349 18.4684 191.454 18.7373C191.559 19.0016 191.721 19.2113 191.939 19.3662C192.158 19.5212 192.445 19.5986 192.801 19.5986C193.061 19.5986 193.279 19.5417 193.457 19.4277C193.635 19.3092 193.778 19.1475 193.888 18.9424C194.002 18.7373 194.081 18.5003 194.127 18.2314C194.177 17.9626 194.202 17.6732 194.202 17.3633ZM199.37 15.1348V21H197.395V13.6035H199.247L199.37 15.1348ZM199.097 17.042H198.55C198.55 16.527 198.611 16.0531 198.734 15.6201C198.862 15.1826 199.047 14.8044 199.288 14.4854C199.534 14.1618 199.837 13.9111 200.197 13.7334C200.557 13.5557 200.974 13.4668 201.448 13.4668C201.776 13.4668 202.077 13.5169 202.351 13.6172C202.624 13.7129 202.859 13.8656 203.055 14.0752C203.255 14.2803 203.41 14.5492 203.52 14.8818C203.629 15.21 203.684 15.6042 203.684 16.0645V21H201.715V16.2832C201.715 15.946 201.669 15.6862 201.578 15.5039C201.487 15.3216 201.357 15.194 201.188 15.1211C201.024 15.0482 200.826 15.0117 200.594 15.0117C200.339 15.0117 200.115 15.0641 199.924 15.1689C199.737 15.2738 199.582 15.4196 199.459 15.6064C199.336 15.7887 199.245 16.0029 199.186 16.249C199.126 16.4951 199.097 16.7594 199.097 17.042ZM203.499 16.8164L202.795 16.9053C202.795 16.4222 202.854 15.9733 202.973 15.5586C203.096 15.1439 203.276 14.7793 203.513 14.4648C203.754 14.1504 204.053 13.9066 204.408 13.7334C204.764 13.5557 205.174 13.4668 205.639 13.4668C205.994 13.4668 206.318 13.5192 206.609 13.624C206.901 13.7243 207.149 13.8861 207.354 14.1094C207.564 14.3281 207.724 14.6152 207.833 14.9707C207.947 15.3262 208.004 15.7614 208.004 16.2764V21H206.028V16.2764C206.028 15.9346 205.983 15.6748 205.892 15.4971C205.805 15.3148 205.677 15.1895 205.509 15.1211C205.345 15.0482 205.149 15.0117 204.921 15.0117C204.684 15.0117 204.477 15.0596 204.299 15.1553C204.121 15.2464 203.973 15.374 203.854 15.5381C203.736 15.7021 203.647 15.8936 203.588 16.1123C203.529 16.3265 203.499 16.5612 203.499 16.8164ZM212.933 21.1367C212.358 21.1367 211.843 21.0456 211.388 20.8633C210.932 20.6764 210.545 20.4189 210.226 20.0908C209.911 19.7627 209.67 19.3822 209.501 18.9492C209.332 18.5117 209.248 18.0469 209.248 17.5547V17.2812C209.248 16.7207 209.328 16.208 209.487 15.7432C209.647 15.2783 209.875 14.875 210.171 14.5332C210.472 14.1914 210.836 13.9294 211.265 13.7471C211.693 13.5602 212.176 13.4668 212.714 13.4668C213.238 13.4668 213.703 13.5534 214.108 13.7266C214.514 13.8997 214.854 14.1458 215.127 14.4648C215.405 14.7839 215.615 15.1667 215.756 15.6133C215.897 16.0553 215.968 16.5475 215.968 17.0898V17.9102H210.089V16.5977H214.033V16.4473C214.033 16.1738 213.983 15.93 213.883 15.7158C213.787 15.4971 213.641 15.3239 213.445 15.1963C213.249 15.0687 212.999 15.0049 212.693 15.0049C212.434 15.0049 212.21 15.0618 212.023 15.1758C211.837 15.2897 211.684 15.4492 211.565 15.6543C211.451 15.8594 211.365 16.1009 211.306 16.3789C211.251 16.6523 211.224 16.9531 211.224 17.2812V17.5547C211.224 17.8509 211.265 18.1243 211.347 18.375C211.433 18.6257 211.554 18.8421 211.709 19.0244C211.868 19.2067 212.06 19.348 212.283 19.4482C212.511 19.5485 212.769 19.5986 213.056 19.5986C213.411 19.5986 213.742 19.5303 214.047 19.3936C214.357 19.2523 214.623 19.0404 214.847 18.7578L215.804 19.7969C215.649 20.0202 215.437 20.2344 215.168 20.4395C214.904 20.6445 214.585 20.8132 214.211 20.9453C213.837 21.0729 213.411 21.1367 212.933 21.1367ZM219.017 15.1826V21H217.048V13.6035H218.894L219.017 15.1826ZM218.729 17.042H218.196C218.196 16.4951 218.267 16.0029 218.408 15.5654C218.549 15.1234 218.748 14.7474 219.003 14.4375C219.258 14.123 219.561 13.8838 219.912 13.7197C220.268 13.5511 220.664 13.4668 221.102 13.4668C221.448 13.4668 221.765 13.5169 222.052 13.6172C222.339 13.7174 222.585 13.877 222.79 14.0957C223 14.3145 223.159 14.6038 223.269 14.9639C223.382 15.3239 223.439 15.7637 223.439 16.2832V21H221.457V16.2764C221.457 15.9482 221.411 15.693 221.32 15.5107C221.229 15.3285 221.095 15.2008 220.917 15.1279C220.744 15.0505 220.53 15.0117 220.274 15.0117C220.01 15.0117 219.78 15.0641 219.584 15.1689C219.393 15.2738 219.233 15.4196 219.105 15.6064C218.982 15.7887 218.889 16.0029 218.825 16.249C218.761 16.4951 218.729 16.7594 218.729 17.042ZM228.56 13.6035V14.998H224.253V13.6035H228.56ZM225.319 11.7783H227.288V18.7715C227.288 18.9857 227.315 19.1497 227.37 19.2637C227.429 19.3776 227.516 19.4574 227.63 19.5029C227.744 19.5439 227.887 19.5645 228.061 19.5645C228.184 19.5645 228.293 19.5599 228.389 19.5508C228.489 19.5371 228.573 19.5234 228.642 19.5098L228.648 20.959C228.48 21.0137 228.298 21.057 228.102 21.0889C227.906 21.1208 227.689 21.1367 227.452 21.1367C227.019 21.1367 226.641 21.0661 226.317 20.9248C225.998 20.779 225.752 20.5465 225.579 20.2275C225.406 19.9085 225.319 19.4893 225.319 18.9697V11.7783Z" fill="#3E5196"/>
</g>
<defs>
<filter id="filter0_d_2014_3849" x="0" y="0" width="245" height="34" filterUnits="userSpaceOnUse" color-interpolation-filters="sRGB">
<feFlood flood-opacity="0" result="BackgroundImageFix"/>
<feColorMatrix in="SourceAlpha" type="matrix" values="0 0 0 0 0 0 0 0 0 0 0 0 0 0 0 0 0 0 127 0" result="hardAlpha"/>
<feOffset dy="2"/>
<feColorMatrix type="matrix" values="0 0 0 0 0 0 0 0 0 0 0 0 0 0 0 0 0 0 0.016 0"/>
<feBlend mode="normal" in2="BackgroundImageFix" result="effect1_dropShadow_2014_3849"/>
<feBlend mode="normal" in="SourceGraphic" in2="effect1_dropShadow_2014_3849" result="shape"/>
</filter>
<clipPath id="clip0_2014_3849">
<rect width="20" height="20" fill="white" transform="translate(16 6)"/>
</clipPath>
</defs>
</svg>
