<svg width="260" height="34" viewBox="0 0 260 34" fill="none" xmlns="http://www.w3.org/2000/svg">
<g filter="url(#filter0_d_2014_3854)">
<rect width="260" height="32" rx="16" fill="white"/>
<g clip-path="url(#clip0_2014_3854)">
<path d="M17.6748 23.5L35.1665 16L17.6748 8.5L17.6665 14.3333L30.1665 16L17.6665 17.6667L17.6748 23.5Z" fill="#3E5196"/>
</g>
<path d="M50.1768 18.3955C50.1768 18.2178 50.1494 18.0583 50.0947 17.917C50.0446 17.7712 49.9489 17.639 49.8076 17.5205C49.6663 17.3975 49.4681 17.2767 49.2129 17.1582C48.9577 17.0397 48.6273 16.9167 48.2217 16.7891C47.7705 16.6432 47.3421 16.4792 46.9365 16.2969C46.5355 16.1146 46.18 15.9027 45.8701 15.6611C45.5648 15.415 45.3232 15.1302 45.1455 14.8066C44.9723 14.4831 44.8857 14.1071 44.8857 13.6787C44.8857 13.264 44.9769 12.888 45.1592 12.5508C45.3415 12.209 45.5967 11.9173 45.9248 11.6758C46.2529 11.4297 46.6403 11.2406 47.0869 11.1084C47.5381 10.9762 48.0326 10.9102 48.5703 10.9102C49.304 10.9102 49.9443 11.0423 50.4912 11.3066C51.0381 11.571 51.4619 11.9333 51.7627 12.3936C52.068 12.8538 52.2207 13.3802 52.2207 13.9727H50.1836C50.1836 13.681 50.1221 13.4258 49.999 13.207C49.8805 12.9837 49.6982 12.8083 49.4521 12.6807C49.2106 12.5531 48.9053 12.4893 48.5361 12.4893C48.1807 12.4893 47.8844 12.5439 47.6475 12.6533C47.4105 12.7581 47.2327 12.9017 47.1143 13.084C46.9958 13.2617 46.9365 13.4622 46.9365 13.6855C46.9365 13.8542 46.9775 14.0068 47.0596 14.1436C47.1462 14.2803 47.2738 14.4079 47.4424 14.5264C47.611 14.6449 47.8184 14.7565 48.0645 14.8613C48.3105 14.9661 48.5954 15.0687 48.9189 15.1689C49.4613 15.333 49.9375 15.5176 50.3477 15.7227C50.7624 15.9277 51.1087 16.1579 51.3867 16.4131C51.6647 16.6683 51.8743 16.9577 52.0156 17.2812C52.1569 17.6048 52.2275 17.9717 52.2275 18.3818C52.2275 18.8148 52.1432 19.2021 51.9746 19.5439C51.806 19.8857 51.5622 20.1751 51.2432 20.4121C50.9242 20.6491 50.5436 20.8291 50.1016 20.9521C49.6595 21.0752 49.165 21.1367 48.6182 21.1367C48.126 21.1367 47.6406 21.0729 47.1621 20.9453C46.6836 20.8132 46.2484 20.6149 45.8564 20.3506C45.4691 20.0863 45.1592 19.749 44.9268 19.3389C44.6943 18.9287 44.5781 18.4434 44.5781 17.8828H46.6357C46.6357 18.1927 46.6836 18.4548 46.7793 18.6689C46.875 18.8831 47.0094 19.0563 47.1826 19.1885C47.3604 19.3206 47.57 19.4163 47.8115 19.4756C48.0576 19.5348 48.3265 19.5645 48.6182 19.5645C48.9736 19.5645 49.2653 19.5143 49.4932 19.4141C49.7256 19.3138 49.8965 19.1748 50.0059 18.9971C50.1198 18.8193 50.1768 18.6188 50.1768 18.3955ZM56.9033 21.1367C56.3291 21.1367 55.8141 21.0456 55.3584 20.8633C54.9027 20.6764 54.5153 20.4189 54.1963 20.0908C53.8818 19.7627 53.6403 19.3822 53.4717 18.9492C53.3031 18.5117 53.2188 18.0469 53.2188 17.5547V17.2812C53.2188 16.7207 53.2985 16.208 53.458 15.7432C53.6175 15.2783 53.8454 14.875 54.1416 14.5332C54.4424 14.1914 54.807 13.9294 55.2354 13.7471C55.6637 13.5602 56.1468 13.4668 56.6846 13.4668C57.2087 13.4668 57.6735 13.5534 58.0791 13.7266C58.4847 13.8997 58.8242 14.1458 59.0977 14.4648C59.3757 14.7839 59.5853 15.1667 59.7266 15.6133C59.8678 16.0553 59.9385 16.5475 59.9385 17.0898V17.9102H54.0596V16.5977H58.0039V16.4473C58.0039 16.1738 57.9538 15.93 57.8535 15.7158C57.7578 15.4971 57.612 15.3239 57.416 15.1963C57.2201 15.0687 56.9694 15.0049 56.6641 15.0049C56.4043 15.0049 56.181 15.0618 55.9941 15.1758C55.8073 15.2897 55.6546 15.4492 55.5361 15.6543C55.4222 15.8594 55.3356 16.1009 55.2764 16.3789C55.2217 16.6523 55.1943 16.9531 55.1943 17.2812V17.5547C55.1943 17.8509 55.2354 18.1243 55.3174 18.375C55.404 18.6257 55.5247 18.8421 55.6797 19.0244C55.8392 19.2067 56.0306 19.348 56.2539 19.4482C56.4818 19.5485 56.7393 19.5986 57.0264 19.5986C57.3818 19.5986 57.7122 19.5303 58.0176 19.3936C58.3275 19.2523 58.5941 19.0404 58.8174 18.7578L59.7744 19.7969C59.6195 20.0202 59.4076 20.2344 59.1387 20.4395C58.8743 20.6445 58.5553 20.8132 58.1816 20.9453C57.8079 21.0729 57.3818 21.1367 56.9033 21.1367ZM62.9873 15.1826V21H61.0186V13.6035H62.8643L62.9873 15.1826ZM62.7002 17.042H62.167C62.167 16.4951 62.2376 16.0029 62.3789 15.5654C62.5202 15.1234 62.7184 14.7474 62.9736 14.4375C63.2288 14.123 63.5319 13.8838 63.8828 13.7197C64.2383 13.5511 64.6348 13.4668 65.0723 13.4668C65.4186 13.4668 65.7354 13.5169 66.0225 13.6172C66.3096 13.7174 66.5557 13.877 66.7607 14.0957C66.9704 14.3145 67.1299 14.6038 67.2393 14.9639C67.3532 15.3239 67.4102 15.7637 67.4102 16.2832V21H65.4277V16.2764C65.4277 15.9482 65.3822 15.693 65.291 15.5107C65.1999 15.3285 65.0654 15.2008 64.8877 15.1279C64.7145 15.0505 64.5003 15.0117 64.2451 15.0117C63.9808 15.0117 63.7507 15.0641 63.5547 15.1689C63.3633 15.2738 63.2038 15.4196 63.0762 15.6064C62.9531 15.7887 62.8597 16.0029 62.7959 16.249C62.7321 16.4951 62.7002 16.7594 62.7002 17.042ZM72.5303 13.6035V14.998H68.2236V13.6035H72.5303ZM69.29 11.7783H71.2588V18.7715C71.2588 18.9857 71.2861 19.1497 71.3408 19.2637C71.4001 19.3776 71.4867 19.4574 71.6006 19.5029C71.7145 19.5439 71.8581 19.5645 72.0312 19.5645C72.1543 19.5645 72.2637 19.5599 72.3594 19.5508C72.4596 19.5371 72.5439 19.5234 72.6123 19.5098L72.6191 20.959C72.4505 21.0137 72.2682 21.057 72.0723 21.0889C71.8763 21.1208 71.6598 21.1367 71.4229 21.1367C70.9899 21.1367 70.6117 21.0661 70.2881 20.9248C69.9691 20.779 69.723 20.5465 69.5498 20.2275C69.3766 19.9085 69.29 19.4893 69.29 18.9697V11.7783ZM80.7607 13.6035V14.998H76.4541V13.6035H80.7607ZM77.5205 11.7783H79.4893V18.7715C79.4893 18.9857 79.5166 19.1497 79.5713 19.2637C79.6305 19.3776 79.7171 19.4574 79.8311 19.5029C79.945 19.5439 80.0885 19.5645 80.2617 19.5645C80.3848 19.5645 80.4941 19.5599 80.5898 19.5508C80.6901 19.5371 80.7744 19.5234 80.8428 19.5098L80.8496 20.959C80.681 21.0137 80.4987 21.057 80.3027 21.0889C80.1068 21.1208 79.8903 21.1367 79.6533 21.1367C79.2204 21.1367 78.8421 21.0661 78.5186 20.9248C78.1995 20.779 77.9535 20.5465 77.7803 20.2275C77.6071 19.9085 77.5205 19.4893 77.5205 18.9697V11.7783ZM81.3896 17.377V17.2334C81.3896 16.6911 81.4671 16.1921 81.6221 15.7363C81.777 15.276 82.0026 14.8773 82.2988 14.54C82.5951 14.2028 82.9596 13.9408 83.3926 13.7539C83.8255 13.5625 84.3223 13.4668 84.8828 13.4668C85.4434 13.4668 85.9424 13.5625 86.3799 13.7539C86.8174 13.9408 87.1842 14.2028 87.4805 14.54C87.7812 14.8773 88.0091 15.276 88.1641 15.7363C88.319 16.1921 88.3965 16.6911 88.3965 17.2334V17.377C88.3965 17.9147 88.319 18.4137 88.1641 18.874C88.0091 19.3298 87.7812 19.7285 87.4805 20.0703C87.1842 20.4076 86.8197 20.6696 86.3867 20.8564C85.9538 21.0433 85.457 21.1367 84.8965 21.1367C84.3359 21.1367 83.8369 21.0433 83.3994 20.8564C82.9665 20.6696 82.5996 20.4076 82.2988 20.0703C82.0026 19.7285 81.777 19.3298 81.6221 18.874C81.4671 18.4137 81.3896 17.9147 81.3896 17.377ZM83.3584 17.2334V17.377C83.3584 17.6868 83.3857 17.9762 83.4404 18.2451C83.4951 18.514 83.5817 18.751 83.7002 18.9561C83.8232 19.1566 83.9827 19.3138 84.1787 19.4277C84.3747 19.5417 84.6139 19.5986 84.8965 19.5986C85.1699 19.5986 85.4046 19.5417 85.6006 19.4277C85.7965 19.3138 85.9538 19.1566 86.0723 18.9561C86.1908 18.751 86.2773 18.514 86.332 18.2451C86.3913 17.9762 86.4209 17.6868 86.4209 17.377V17.2334C86.4209 16.9326 86.3913 16.6501 86.332 16.3857C86.2773 16.1169 86.1885 15.8799 86.0654 15.6748C85.9469 15.4652 85.7897 15.3011 85.5938 15.1826C85.3978 15.0641 85.1608 15.0049 84.8828 15.0049C84.6048 15.0049 84.3678 15.0641 84.1719 15.1826C83.9805 15.3011 83.8232 15.4652 83.7002 15.6748C83.5817 15.8799 83.4951 16.1169 83.4404 16.3857C83.3857 16.6501 83.3584 16.9326 83.3584 17.2334ZM97.1123 16.6318H94.5557L94.542 15.2236H96.6885C97.0667 15.2236 97.3766 15.1758 97.6182 15.0801C97.8597 14.9798 98.0397 14.8363 98.1582 14.6494C98.2812 14.458 98.3428 14.2256 98.3428 13.9521C98.3428 13.6423 98.2835 13.3916 98.165 13.2002C98.0511 13.0088 97.8711 12.8698 97.625 12.7832C97.3835 12.6966 97.0713 12.6533 96.6885 12.6533H95.2666V21H93.2158V11.0469H96.6885C97.2673 11.0469 97.7845 11.1016 98.2402 11.2109C98.7005 11.3203 99.0902 11.4867 99.4092 11.71C99.7282 11.9333 99.972 12.2158 100.141 12.5576C100.309 12.8949 100.394 13.2959 100.394 13.7607C100.394 14.1709 100.3 14.5492 100.113 14.8955C99.931 15.2419 99.6416 15.5244 99.2451 15.7432C98.8532 15.9619 98.3405 16.0827 97.707 16.1055L97.1123 16.6318ZM97.0234 21H93.9951L94.7949 19.4004H97.0234C97.3835 19.4004 97.6774 19.3434 97.9053 19.2295C98.1331 19.111 98.3018 18.9515 98.4111 18.751C98.5205 18.5505 98.5752 18.3203 98.5752 18.0605C98.5752 17.7689 98.5251 17.516 98.4248 17.3018C98.3291 17.0876 98.1742 16.9235 97.96 16.8096C97.7458 16.6911 97.4632 16.6318 97.1123 16.6318H95.1367L95.1504 15.2236H97.6113L98.083 15.7773C98.6891 15.7682 99.1768 15.8753 99.5459 16.0986C99.9196 16.3174 100.191 16.6022 100.359 16.9531C100.533 17.304 100.619 17.68 100.619 18.0811C100.619 18.7191 100.48 19.2568 100.202 19.6943C99.9242 20.1273 99.5163 20.4531 98.9785 20.6719C98.4453 20.8906 97.7936 21 97.0234 21ZM106.416 11.0469V21H104.372V11.0469H106.416ZM109.479 11.0469V12.6533H101.357V11.0469H109.479ZM117.046 19.4004V21H112.035V19.4004H117.046ZM112.698 11.0469V21H110.647V11.0469H112.698ZM124.094 21H122.111V12.9473C122.111 12.3867 122.221 11.915 122.439 11.5322C122.663 11.1449 122.975 10.8532 123.376 10.6572C123.782 10.4567 124.262 10.3564 124.818 10.3564C125.001 10.3564 125.176 10.3701 125.345 10.3975C125.513 10.4202 125.677 10.4499 125.837 10.4863L125.816 11.9697C125.73 11.9469 125.639 11.931 125.543 11.9219C125.447 11.9128 125.336 11.9082 125.208 11.9082C124.971 11.9082 124.768 11.9492 124.6 12.0312C124.436 12.1087 124.31 12.2249 124.224 12.3799C124.137 12.5348 124.094 12.724 124.094 12.9473V21ZM125.57 13.6035V14.998H121.011V13.6035H125.57ZM126.288 17.377V17.2334C126.288 16.6911 126.366 16.1921 126.521 15.7363C126.675 15.276 126.901 14.8773 127.197 14.54C127.493 14.2028 127.858 13.9408 128.291 13.7539C128.724 13.5625 129.221 13.4668 129.781 13.4668C130.342 13.4668 130.841 13.5625 131.278 13.7539C131.716 13.9408 132.083 14.2028 132.379 14.54C132.68 14.8773 132.908 15.276 133.062 15.7363C133.217 16.1921 133.295 16.6911 133.295 17.2334V17.377C133.295 17.9147 133.217 18.4137 133.062 18.874C132.908 19.3298 132.68 19.7285 132.379 20.0703C132.083 20.4076 131.718 20.6696 131.285 20.8564C130.852 21.0433 130.355 21.1367 129.795 21.1367C129.234 21.1367 128.735 21.0433 128.298 20.8564C127.865 20.6696 127.498 20.4076 127.197 20.0703C126.901 19.7285 126.675 19.3298 126.521 18.874C126.366 18.4137 126.288 17.9147 126.288 17.377ZM128.257 17.2334V17.377C128.257 17.6868 128.284 17.9762 128.339 18.2451C128.394 18.514 128.48 18.751 128.599 18.9561C128.722 19.1566 128.881 19.3138 129.077 19.4277C129.273 19.5417 129.512 19.5986 129.795 19.5986C130.068 19.5986 130.303 19.5417 130.499 19.4277C130.695 19.3138 130.852 19.1566 130.971 18.9561C131.089 18.751 131.176 18.514 131.23 18.2451C131.29 17.9762 131.319 17.6868 131.319 17.377V17.2334C131.319 16.9326 131.29 16.6501 131.23 16.3857C131.176 16.1169 131.087 15.8799 130.964 15.6748C130.845 15.4652 130.688 15.3011 130.492 15.1826C130.296 15.0641 130.059 15.0049 129.781 15.0049C129.503 15.0049 129.266 15.0641 129.07 15.1826C128.879 15.3011 128.722 15.4652 128.599 15.6748C128.48 15.8799 128.394 16.1169 128.339 16.3857C128.284 16.6501 128.257 16.9326 128.257 17.2334ZM136.474 15.2168V21H134.505V13.6035H136.357L136.474 15.2168ZM138.702 13.5557L138.668 15.3809C138.572 15.3672 138.456 15.3558 138.319 15.3467C138.187 15.333 138.066 15.3262 137.957 15.3262C137.679 15.3262 137.438 15.3626 137.232 15.4355C137.032 15.5039 136.863 15.6064 136.727 15.7432C136.594 15.8799 136.494 16.0462 136.426 16.2422C136.362 16.4382 136.326 16.6615 136.316 16.9121L135.92 16.7891C135.92 16.3105 135.968 15.8708 136.063 15.4697C136.159 15.0641 136.298 14.7109 136.48 14.4102C136.667 14.1094 136.895 13.877 137.164 13.7129C137.433 13.5488 137.741 13.4668 138.087 13.4668C138.196 13.4668 138.308 13.4759 138.422 13.4941C138.536 13.5078 138.629 13.5283 138.702 13.5557ZM143.118 10.5H145.087V19.3047L144.889 21H143.118V10.5ZM149.77 17.2266V17.3701C149.77 17.9215 149.71 18.4274 149.592 18.8877C149.478 19.348 149.3 19.7467 149.059 20.084C148.817 20.4167 148.516 20.6764 148.156 20.8633C147.801 21.0456 147.382 21.1367 146.898 21.1367C146.447 21.1367 146.055 21.0456 145.723 20.8633C145.395 20.681 145.119 20.4235 144.896 20.0908C144.672 19.7581 144.492 19.3685 144.355 18.9219C144.219 18.4753 144.116 17.9876 144.048 17.459V17.1445C144.116 16.6159 144.219 16.1283 144.355 15.6816C144.492 15.235 144.672 14.8454 144.896 14.5127C145.119 14.18 145.395 13.9225 145.723 13.7402C146.051 13.5579 146.438 13.4668 146.885 13.4668C147.372 13.4668 147.796 13.5602 148.156 13.7471C148.521 13.9294 148.822 14.1891 149.059 14.5264C149.3 14.859 149.478 15.2555 149.592 15.7158C149.71 16.1715 149.77 16.6751 149.77 17.2266ZM147.801 17.3701V17.2266C147.801 16.9258 147.778 16.6432 147.732 16.3789C147.691 16.11 147.618 15.8753 147.514 15.6748C147.409 15.4697 147.265 15.3079 147.083 15.1895C146.905 15.071 146.675 15.0117 146.393 15.0117C146.124 15.0117 145.896 15.0573 145.709 15.1484C145.522 15.2396 145.367 15.3672 145.244 15.5312C145.126 15.6953 145.037 15.8913 144.978 16.1191C144.918 16.3424 144.882 16.5885 144.868 16.8574V17.7529C144.882 18.113 144.941 18.432 145.046 18.71C145.155 18.9834 145.319 19.1999 145.538 19.3594C145.761 19.5143 146.051 19.5918 146.406 19.5918C146.684 19.5918 146.914 19.5371 147.097 19.4277C147.279 19.3184 147.42 19.1634 147.521 18.9629C147.625 18.7624 147.698 18.5277 147.739 18.2588C147.78 17.9854 147.801 17.6891 147.801 17.3701ZM155.368 19.2295V13.6035H157.337V21H155.484L155.368 19.2295ZM155.587 17.7119L156.168 17.6982C156.168 18.1904 156.111 18.6484 155.997 19.0723C155.883 19.4915 155.712 19.8561 155.484 20.166C155.257 20.4714 154.969 20.7106 154.623 20.8838C154.277 21.0524 153.869 21.1367 153.399 21.1367C153.039 21.1367 152.707 21.0866 152.401 20.9863C152.101 20.8815 151.841 20.7197 151.622 20.501C151.408 20.2777 151.239 19.9928 151.116 19.6465C150.998 19.2956 150.938 18.874 150.938 18.3818V13.6035H152.907V18.3955C152.907 18.6143 152.932 18.7988 152.982 18.9492C153.037 19.0996 153.112 19.2227 153.208 19.3184C153.304 19.4141 153.415 19.4824 153.543 19.5234C153.675 19.5645 153.821 19.585 153.98 19.585C154.386 19.585 154.705 19.5029 154.938 19.3389C155.174 19.1748 155.341 18.9515 155.437 18.6689C155.537 18.3818 155.587 18.0628 155.587 17.7119ZM163.209 19.3867V10.5H165.191V21H163.407L163.209 19.3867ZM158.533 17.3906V17.2471C158.533 16.682 158.597 16.1693 158.725 15.709C158.852 15.2441 159.039 14.8454 159.285 14.5127C159.531 14.18 159.834 13.9225 160.194 13.7402C160.554 13.5579 160.965 13.4668 161.425 13.4668C161.858 13.4668 162.236 13.5579 162.56 13.7402C162.888 13.9225 163.166 14.1823 163.394 14.5195C163.626 14.8522 163.813 15.2464 163.954 15.7021C164.095 16.1533 164.198 16.6478 164.262 17.1855V17.5C164.198 18.015 164.095 18.4935 163.954 18.9355C163.813 19.3776 163.626 19.765 163.394 20.0977C163.166 20.4258 162.888 20.681 162.56 20.8633C162.231 21.0456 161.849 21.1367 161.411 21.1367C160.951 21.1367 160.541 21.0433 160.181 20.8564C159.825 20.6696 159.524 20.4076 159.278 20.0703C159.037 19.7331 158.852 19.3366 158.725 18.8809C158.597 18.4251 158.533 17.9284 158.533 17.3906ZM160.502 17.2471V17.3906C160.502 17.696 160.525 17.9808 160.57 18.2451C160.62 18.5094 160.7 18.7441 160.81 18.9492C160.924 19.1497 161.069 19.307 161.247 19.4209C161.429 19.5303 161.65 19.585 161.91 19.585C162.247 19.585 162.525 19.5098 162.744 19.3594C162.963 19.2044 163.129 18.9925 163.243 18.7236C163.362 18.4548 163.43 18.1449 163.448 17.7939V16.8984C163.435 16.6113 163.394 16.3538 163.325 16.126C163.261 15.8936 163.166 15.6953 163.038 15.5312C162.915 15.3672 162.76 15.2396 162.573 15.1484C162.391 15.0573 162.174 15.0117 161.924 15.0117C161.669 15.0117 161.45 15.071 161.268 15.1895C161.085 15.3034 160.937 15.4606 160.823 15.6611C160.714 15.8617 160.632 16.0986 160.577 16.3721C160.527 16.641 160.502 16.9326 160.502 17.2471ZM171.412 13.6035H173.196V20.7539C173.196 21.4284 173.046 22.0003 172.745 22.4697C172.449 22.9437 172.034 23.3014 171.501 23.543C170.968 23.7891 170.348 23.9121 169.642 23.9121C169.332 23.9121 169.004 23.8711 168.657 23.7891C168.315 23.707 167.987 23.5794 167.673 23.4062C167.363 23.2331 167.103 23.0143 166.894 22.75L167.762 21.5879C167.99 21.8522 168.254 22.0573 168.555 22.2031C168.855 22.3535 169.188 22.4287 169.553 22.4287C169.908 22.4287 170.209 22.3626 170.455 22.2305C170.701 22.1029 170.89 21.9137 171.022 21.6631C171.155 21.417 171.221 21.1185 171.221 20.7676V15.3125L171.412 13.6035ZM166.436 17.3906V17.2471C166.436 16.682 166.504 16.1693 166.641 15.709C166.782 15.2441 166.98 14.8454 167.235 14.5127C167.495 14.18 167.81 13.9225 168.179 13.7402C168.548 13.5579 168.965 13.4668 169.43 13.4668C169.922 13.4668 170.334 13.5579 170.667 13.7402C171 13.9225 171.273 14.1823 171.487 14.5195C171.701 14.8522 171.868 15.2464 171.986 15.7021C172.109 16.1533 172.205 16.6478 172.273 17.1855V17.5C172.205 18.015 172.103 18.4935 171.966 18.9355C171.829 19.3776 171.649 19.765 171.426 20.0977C171.202 20.4258 170.924 20.681 170.592 20.8633C170.264 21.0456 169.872 21.1367 169.416 21.1367C168.96 21.1367 168.548 21.0433 168.179 20.8564C167.814 20.6696 167.502 20.4076 167.242 20.0703C166.982 19.7331 166.782 19.3366 166.641 18.8809C166.504 18.4251 166.436 17.9284 166.436 17.3906ZM168.404 17.2471V17.3906C168.404 17.696 168.434 17.9808 168.493 18.2451C168.552 18.5094 168.644 18.7441 168.767 18.9492C168.894 19.1497 169.051 19.307 169.238 19.4209C169.43 19.5303 169.655 19.585 169.915 19.585C170.275 19.585 170.569 19.5098 170.797 19.3594C171.025 19.2044 171.196 18.9925 171.31 18.7236C171.424 18.4548 171.49 18.1449 171.508 17.7939V16.8984C171.499 16.6113 171.46 16.3538 171.392 16.126C171.323 15.8936 171.228 15.6953 171.104 15.5312C170.981 15.3672 170.822 15.2396 170.626 15.1484C170.43 15.0573 170.198 15.0117 169.929 15.0117C169.669 15.0117 169.443 15.071 169.252 15.1895C169.065 15.3034 168.908 15.4606 168.78 15.6611C168.657 15.8617 168.564 16.0986 168.5 16.3721C168.436 16.641 168.404 16.9326 168.404 17.2471ZM178.132 21.1367C177.558 21.1367 177.043 21.0456 176.587 20.8633C176.131 20.6764 175.744 20.4189 175.425 20.0908C175.11 19.7627 174.869 19.3822 174.7 18.9492C174.532 18.5117 174.447 18.0469 174.447 17.5547V17.2812C174.447 16.7207 174.527 16.208 174.687 15.7432C174.846 15.2783 175.074 14.875 175.37 14.5332C175.671 14.1914 176.035 13.9294 176.464 13.7471C176.892 13.5602 177.375 13.4668 177.913 13.4668C178.437 13.4668 178.902 13.5534 179.308 13.7266C179.713 13.8997 180.053 14.1458 180.326 14.4648C180.604 14.7839 180.814 15.1667 180.955 15.6133C181.096 16.0553 181.167 16.5475 181.167 17.0898V17.9102H175.288V16.5977H179.232V16.4473C179.232 16.1738 179.182 15.93 179.082 15.7158C178.986 15.4971 178.84 15.3239 178.645 15.1963C178.449 15.0687 178.198 15.0049 177.893 15.0049C177.633 15.0049 177.41 15.0618 177.223 15.1758C177.036 15.2897 176.883 15.4492 176.765 15.6543C176.651 15.8594 176.564 16.1009 176.505 16.3789C176.45 16.6523 176.423 16.9531 176.423 17.2812V17.5547C176.423 17.8509 176.464 18.1243 176.546 18.375C176.632 18.6257 176.753 18.8421 176.908 19.0244C177.068 19.2067 177.259 19.348 177.482 19.4482C177.71 19.5485 177.968 19.5986 178.255 19.5986C178.61 19.5986 178.941 19.5303 179.246 19.3936C179.556 19.2523 179.823 19.0404 180.046 18.7578L181.003 19.7969C180.848 20.0202 180.636 20.2344 180.367 20.4395C180.103 20.6445 179.784 20.8132 179.41 20.9453C179.036 21.0729 178.61 21.1367 178.132 21.1367ZM185.911 13.6035V14.998H181.604V13.6035H185.911ZM182.671 11.7783H184.64V18.7715C184.64 18.9857 184.667 19.1497 184.722 19.2637C184.781 19.3776 184.868 19.4574 184.981 19.5029C185.095 19.5439 185.239 19.5645 185.412 19.5645C185.535 19.5645 185.645 19.5599 185.74 19.5508C185.84 19.5371 185.925 19.5234 185.993 19.5098L186 20.959C185.831 21.0137 185.649 21.057 185.453 21.0889C185.257 21.1208 185.041 21.1367 184.804 21.1367C184.371 21.1367 183.993 21.0661 183.669 20.9248C183.35 20.779 183.104 20.5465 182.931 20.2275C182.757 19.9085 182.671 19.4893 182.671 18.9697V11.7783ZM194.511 19.332V16.0371C194.511 15.8001 194.472 15.5973 194.395 15.4287C194.317 15.2555 194.196 15.1211 194.032 15.0254C193.873 14.9297 193.665 14.8818 193.41 14.8818C193.191 14.8818 193.002 14.9206 192.843 14.998C192.683 15.071 192.56 15.1781 192.474 15.3193C192.387 15.4561 192.344 15.6178 192.344 15.8047H190.375C190.375 15.4902 190.448 15.1917 190.594 14.9092C190.74 14.6266 190.951 14.3783 191.229 14.1641C191.507 13.9453 191.838 13.7744 192.221 13.6514C192.608 13.5283 193.041 13.4668 193.52 13.4668C194.094 13.4668 194.604 13.5625 195.051 13.7539C195.497 13.9453 195.848 14.2324 196.104 14.6152C196.363 14.998 196.493 15.4766 196.493 16.0508V19.2158C196.493 19.6214 196.518 19.9541 196.568 20.2139C196.618 20.4691 196.691 20.6924 196.787 20.8838V21H194.798C194.702 20.7995 194.629 20.5488 194.579 20.248C194.534 19.9427 194.511 19.6374 194.511 19.332ZM194.771 16.4951L194.784 17.6094H193.684C193.424 17.6094 193.198 17.639 193.007 17.6982C192.815 17.7575 192.658 17.8418 192.535 17.9512C192.412 18.056 192.321 18.179 192.262 18.3203C192.207 18.4616 192.18 18.6165 192.18 18.7852C192.18 18.9538 192.218 19.1064 192.296 19.2432C192.373 19.3753 192.485 19.4801 192.631 19.5576C192.777 19.6305 192.948 19.667 193.144 19.667C193.44 19.667 193.697 19.6077 193.916 19.4893C194.135 19.3708 194.303 19.2249 194.422 19.0518C194.545 18.8786 194.609 18.7145 194.613 18.5596L195.133 19.3936C195.06 19.5804 194.96 19.7741 194.832 19.9746C194.709 20.1751 194.552 20.3643 194.36 20.542C194.169 20.7152 193.939 20.8587 193.67 20.9727C193.401 21.082 193.082 21.1367 192.713 21.1367C192.243 21.1367 191.817 21.0433 191.435 20.8564C191.056 20.665 190.756 20.403 190.532 20.0703C190.313 19.7331 190.204 19.3503 190.204 18.9219C190.204 18.5345 190.277 18.1904 190.423 17.8896C190.569 17.5889 190.783 17.3359 191.065 17.1309C191.353 16.9212 191.71 16.764 192.139 16.6592C192.567 16.5498 193.064 16.4951 193.629 16.4951H194.771ZM199.979 15.0254V23.8438H198.011V13.6035H199.836L199.979 15.0254ZM204.662 17.2197V17.3633C204.662 17.901 204.598 18.4001 204.471 18.8604C204.348 19.3206 204.165 19.7217 203.924 20.0635C203.682 20.4007 203.382 20.665 203.021 20.8564C202.666 21.0433 202.256 21.1367 201.791 21.1367C201.34 21.1367 200.948 21.0456 200.615 20.8633C200.283 20.681 200.002 20.4258 199.774 20.0977C199.551 19.765 199.371 19.3799 199.234 18.9424C199.098 18.5049 198.993 18.0355 198.92 17.5342V17.1582C198.993 16.6204 199.098 16.1283 199.234 15.6816C199.371 15.2305 199.551 14.8408 199.774 14.5127C200.002 14.18 200.28 13.9225 200.608 13.7402C200.941 13.5579 201.331 13.4668 201.777 13.4668C202.247 13.4668 202.659 13.5557 203.015 13.7334C203.375 13.9111 203.675 14.1663 203.917 14.499C204.163 14.8317 204.348 15.2282 204.471 15.6885C204.598 16.1488 204.662 16.6592 204.662 17.2197ZM202.687 17.3633V17.2197C202.687 16.9053 202.659 16.6159 202.604 16.3516C202.554 16.0827 202.472 15.848 202.358 15.6475C202.249 15.4469 202.103 15.292 201.921 15.1826C201.743 15.0687 201.527 15.0117 201.271 15.0117C201.003 15.0117 200.772 15.055 200.581 15.1416C200.394 15.2282 200.242 15.3535 200.123 15.5176C200.005 15.6816 199.916 15.8776 199.856 16.1055C199.797 16.3333 199.761 16.5908 199.747 16.8779V17.8281C199.77 18.1654 199.834 18.4684 199.938 18.7373C200.043 19.0016 200.205 19.2113 200.424 19.3662C200.643 19.5212 200.93 19.5986 201.285 19.5986C201.545 19.5986 201.764 19.5417 201.941 19.4277C202.119 19.3092 202.263 19.1475 202.372 18.9424C202.486 18.7373 202.566 18.5003 202.611 18.2314C202.661 17.9626 202.687 17.6732 202.687 17.3633ZM207.854 15.0254V23.8438H205.886V13.6035H207.711L207.854 15.0254ZM212.537 17.2197V17.3633C212.537 17.901 212.473 18.4001 212.346 18.8604C212.223 19.3206 212.04 19.7217 211.799 20.0635C211.557 20.4007 211.257 20.665 210.896 20.8564C210.541 21.0433 210.131 21.1367 209.666 21.1367C209.215 21.1367 208.823 21.0456 208.49 20.8633C208.158 20.681 207.877 20.4258 207.649 20.0977C207.426 19.765 207.246 19.3799 207.109 18.9424C206.973 18.5049 206.868 18.0355 206.795 17.5342V17.1582C206.868 16.6204 206.973 16.1283 207.109 15.6816C207.246 15.2305 207.426 14.8408 207.649 14.5127C207.877 14.18 208.155 13.9225 208.483 13.7402C208.816 13.5579 209.206 13.4668 209.652 13.4668C210.122 13.4668 210.534 13.5557 210.89 13.7334C211.25 13.9111 211.55 14.1663 211.792 14.499C212.038 14.8317 212.223 15.2282 212.346 15.6885C212.473 16.1488 212.537 16.6592 212.537 17.2197ZM210.562 17.3633V17.2197C210.562 16.9053 210.534 16.6159 210.479 16.3516C210.429 16.0827 210.347 15.848 210.233 15.6475C210.124 15.4469 209.978 15.292 209.796 15.1826C209.618 15.0687 209.402 15.0117 209.146 15.0117C208.878 15.0117 208.647 15.055 208.456 15.1416C208.269 15.2282 208.117 15.3535 207.998 15.5176C207.88 15.6816 207.791 15.8776 207.731 16.1055C207.672 16.3333 207.636 16.5908 207.622 16.8779V17.8281C207.645 18.1654 207.709 18.4684 207.813 18.7373C207.918 19.0016 208.08 19.2113 208.299 19.3662C208.518 19.5212 208.805 19.5986 209.16 19.5986C209.42 19.5986 209.639 19.5417 209.816 19.4277C209.994 19.3092 210.138 19.1475 210.247 18.9424C210.361 18.7373 210.441 18.5003 210.486 18.2314C210.536 17.9626 210.562 17.6732 210.562 17.3633ZM215.729 15.2168V21H213.761V13.6035H215.613L215.729 15.2168ZM217.958 13.5557L217.924 15.3809C217.828 15.3672 217.712 15.3558 217.575 15.3467C217.443 15.333 217.322 15.3262 217.213 15.3262C216.935 15.3262 216.693 15.3626 216.488 15.4355C216.288 15.5039 216.119 15.6064 215.982 15.7432C215.85 15.8799 215.75 16.0462 215.682 16.2422C215.618 16.4382 215.581 16.6615 215.572 16.9121L215.176 16.7891C215.176 16.3105 215.224 15.8708 215.319 15.4697C215.415 15.0641 215.554 14.7109 215.736 14.4102C215.923 14.1094 216.151 13.877 216.42 13.7129C216.689 13.5488 216.996 13.4668 217.343 13.4668C217.452 13.4668 217.564 13.4759 217.678 13.4941C217.792 13.5078 217.885 13.5283 217.958 13.5557ZM218.368 17.377V17.2334C218.368 16.6911 218.446 16.1921 218.601 15.7363C218.756 15.276 218.981 14.8773 219.277 14.54C219.574 14.2028 219.938 13.9408 220.371 13.7539C220.804 13.5625 221.301 13.4668 221.861 13.4668C222.422 13.4668 222.921 13.5625 223.358 13.7539C223.796 13.9408 224.163 14.2028 224.459 14.54C224.76 14.8773 224.988 15.276 225.143 15.7363C225.298 16.1921 225.375 16.6911 225.375 17.2334V17.377C225.375 17.9147 225.298 18.4137 225.143 18.874C224.988 19.3298 224.76 19.7285 224.459 20.0703C224.163 20.4076 223.798 20.6696 223.365 20.8564C222.932 21.0433 222.436 21.1367 221.875 21.1367C221.314 21.1367 220.815 21.0433 220.378 20.8564C219.945 20.6696 219.578 20.4076 219.277 20.0703C218.981 19.7285 218.756 19.3298 218.601 18.874C218.446 18.4137 218.368 17.9147 218.368 17.377ZM220.337 17.2334V17.377C220.337 17.6868 220.364 17.9762 220.419 18.2451C220.474 18.514 220.56 18.751 220.679 18.9561C220.802 19.1566 220.961 19.3138 221.157 19.4277C221.353 19.5417 221.592 19.5986 221.875 19.5986C222.148 19.5986 222.383 19.5417 222.579 19.4277C222.775 19.3138 222.932 19.1566 223.051 18.9561C223.169 18.751 223.256 18.514 223.311 18.2451C223.37 17.9762 223.399 17.6868 223.399 17.377V17.2334C223.399 16.9326 223.37 16.6501 223.311 16.3857C223.256 16.1169 223.167 15.8799 223.044 15.6748C222.925 15.4652 222.768 15.3011 222.572 15.1826C222.376 15.0641 222.139 15.0049 221.861 15.0049C221.583 15.0049 221.346 15.0641 221.15 15.1826C220.959 15.3011 220.802 15.4652 220.679 15.6748C220.56 15.8799 220.474 16.1169 220.419 16.3857C220.364 16.6501 220.337 16.9326 220.337 17.2334ZM228.991 19.5645L230.632 13.6035H232.689L230.194 21H228.95L228.991 19.5645ZM227.863 13.6035L229.511 19.5713L229.545 21H228.294L225.799 13.6035H227.863ZM237.454 19.332V16.0371C237.454 15.8001 237.415 15.5973 237.338 15.4287C237.26 15.2555 237.14 15.1211 236.976 15.0254C236.816 14.9297 236.609 14.8818 236.354 14.8818C236.135 14.8818 235.946 14.9206 235.786 14.998C235.627 15.071 235.504 15.1781 235.417 15.3193C235.33 15.4561 235.287 15.6178 235.287 15.8047H233.318C233.318 15.4902 233.391 15.1917 233.537 14.9092C233.683 14.6266 233.895 14.3783 234.173 14.1641C234.451 13.9453 234.781 13.7744 235.164 13.6514C235.551 13.5283 235.984 13.4668 236.463 13.4668C237.037 13.4668 237.548 13.5625 237.994 13.7539C238.441 13.9453 238.792 14.2324 239.047 14.6152C239.307 14.998 239.437 15.4766 239.437 16.0508V19.2158C239.437 19.6214 239.462 19.9541 239.512 20.2139C239.562 20.4691 239.635 20.6924 239.73 20.8838V21H237.741C237.646 20.7995 237.573 20.5488 237.522 20.248C237.477 19.9427 237.454 19.6374 237.454 19.332ZM237.714 16.4951L237.728 17.6094H236.627C236.367 17.6094 236.142 17.639 235.95 17.6982C235.759 17.7575 235.602 17.8418 235.479 17.9512C235.355 18.056 235.264 18.179 235.205 18.3203C235.15 18.4616 235.123 18.6165 235.123 18.7852C235.123 18.9538 235.162 19.1064 235.239 19.2432C235.317 19.3753 235.428 19.4801 235.574 19.5576C235.72 19.6305 235.891 19.667 236.087 19.667C236.383 19.667 236.641 19.6077 236.859 19.4893C237.078 19.3708 237.247 19.2249 237.365 19.0518C237.488 18.8786 237.552 18.7145 237.557 18.5596L238.076 19.3936C238.003 19.5804 237.903 19.7741 237.775 19.9746C237.652 20.1751 237.495 20.3643 237.304 20.542C237.112 20.7152 236.882 20.8587 236.613 20.9727C236.344 21.082 236.025 21.1367 235.656 21.1367C235.187 21.1367 234.761 21.0433 234.378 20.8564C234 20.665 233.699 20.403 233.476 20.0703C233.257 19.7331 233.147 19.3503 233.147 18.9219C233.147 18.5345 233.22 18.1904 233.366 17.8896C233.512 17.5889 233.726 17.3359 234.009 17.1309C234.296 16.9212 234.654 16.764 235.082 16.6592C235.51 16.5498 236.007 16.4951 236.572 16.4951H237.714ZM243.032 10.5V21H241.057V10.5H243.032Z" fill="#3E5196"/>
</g>
<defs>
<filter id="filter0_d_2014_3854" x="0" y="0" width="260" height="34" filterUnits="userSpaceOnUse" color-interpolation-filters="sRGB">
<feFlood flood-opacity="0" result="BackgroundImageFix"/>
<feColorMatrix in="SourceAlpha" type="matrix" values="0 0 0 0 0 0 0 0 0 0 0 0 0 0 0 0 0 0 127 0" result="hardAlpha"/>
<feOffset dy="2"/>
<feColorMatrix type="matrix" values="0 0 0 0 0 0 0 0 0 0 0 0 0 0 0 0 0 0 0.016 0"/>
<feBlend mode="normal" in2="BackgroundImageFix" result="effect1_dropShadow_2014_3854"/>
<feBlend mode="normal" in="SourceGraphic" in2="effect1_dropShadow_2014_3854" result="shape"/>
</filter>
<clipPath id="clip0_2014_3854">
<rect width="20" height="20" fill="white" transform="translate(16 6)"/>
</clipPath>
</defs>
</svg>
