<svg width="105" height="34" viewBox="0 0 105 34" fill="none" xmlns="http://www.w3.org/2000/svg">
<g filter="url(#filter0_d_2203_3845)">
<rect width="105" height="32" rx="16" fill="white"/>
<g clip-path="url(#clip0_2203_3845)">
<path d="M17.6748 23.5L35.1665 16L17.6748 8.5L17.6665 14.3333L30.1665 16L17.6665 17.6667L17.6748 23.5Z" fill="#14448B"/>
</g>
<path d="M50.1074 18.3955C50.1074 18.2178 50.0801 18.0583 50.0254 17.917C49.9753 17.7712 49.8796 17.639 49.7383 17.5205C49.597 17.3975 49.3988 17.2767 49.1436 17.1582C48.8883 17.0397 48.5579 16.9167 48.1523 16.7891C47.7012 16.6432 47.2728 16.4792 46.8672 16.2969C46.4661 16.1146 46.1107 15.9027 45.8008 15.6611C45.4954 15.415 45.2539 15.1302 45.0762 14.8066C44.903 14.4831 44.8164 14.1071 44.8164 13.6787C44.8164 13.264 44.9076 12.888 45.0898 12.5508C45.2721 12.209 45.5273 11.9173 45.8555 11.6758C46.1836 11.4297 46.571 11.2406 47.0176 11.1084C47.4688 10.9762 47.9632 10.9102 48.501 10.9102C49.2347 10.9102 49.875 11.0423 50.4219 11.3066C50.9688 11.571 51.3926 11.9333 51.6934 12.3936C51.9987 12.8538 52.1514 13.3802 52.1514 13.9727H50.1143C50.1143 13.681 50.0527 13.4258 49.9297 13.207C49.8112 12.9837 49.6289 12.8083 49.3828 12.6807C49.1413 12.5531 48.8359 12.4893 48.4668 12.4893C48.1113 12.4893 47.8151 12.5439 47.5781 12.6533C47.3411 12.7581 47.1634 12.9017 47.0449 13.084C46.9264 13.2617 46.8672 13.4622 46.8672 13.6855C46.8672 13.8542 46.9082 14.0068 46.9902 14.1436C47.0768 14.2803 47.2044 14.4079 47.373 14.5264C47.5417 14.6449 47.749 14.7565 47.9951 14.8613C48.2412 14.9661 48.526 15.0687 48.8496 15.1689C49.3919 15.333 49.8682 15.5176 50.2783 15.7227C50.693 15.9277 51.0394 16.1579 51.3174 16.4131C51.5954 16.6683 51.805 16.9577 51.9463 17.2812C52.0876 17.6048 52.1582 17.9717 52.1582 18.3818C52.1582 18.8148 52.0739 19.2021 51.9053 19.5439C51.7367 19.8857 51.4928 20.1751 51.1738 20.4121C50.8548 20.6491 50.4743 20.8291 50.0322 20.9521C49.5902 21.0752 49.0957 21.1367 48.5488 21.1367C48.0566 21.1367 47.5713 21.0729 47.0928 20.9453C46.6143 20.8132 46.179 20.6149 45.7871 20.3506C45.3997 20.0863 45.0898 19.749 44.8574 19.3389C44.625 18.9287 44.5088 18.4434 44.5088 17.8828H46.5664C46.5664 18.1927 46.6143 18.4548 46.71 18.6689C46.8057 18.8831 46.9401 19.0563 47.1133 19.1885C47.291 19.3206 47.5007 19.4163 47.7422 19.4756C47.9883 19.5348 48.2572 19.5645 48.5488 19.5645C48.9043 19.5645 49.196 19.5143 49.4238 19.4141C49.6562 19.3138 49.8271 19.1748 49.9365 18.9971C50.0505 18.8193 50.1074 18.6188 50.1074 18.3955ZM57.8047 19.2295V13.6035H59.7734V21H57.9209L57.8047 19.2295ZM58.0234 17.7119L58.6045 17.6982C58.6045 18.1904 58.5475 18.6484 58.4336 19.0723C58.3197 19.4915 58.1488 19.8561 57.9209 20.166C57.693 20.4714 57.4059 20.7106 57.0596 20.8838C56.7132 21.0524 56.3053 21.1367 55.8359 21.1367C55.4759 21.1367 55.1432 21.0866 54.8379 20.9863C54.5371 20.8815 54.2773 20.7197 54.0586 20.501C53.8444 20.2777 53.6758 19.9928 53.5527 19.6465C53.4342 19.2956 53.375 18.874 53.375 18.3818V13.6035H55.3438V18.3955C55.3438 18.6143 55.3688 18.7988 55.4189 18.9492C55.4736 19.0996 55.5488 19.2227 55.6445 19.3184C55.7402 19.4141 55.8519 19.4824 55.9795 19.5234C56.1117 19.5645 56.2575 19.585 56.417 19.585C56.8226 19.585 57.1416 19.5029 57.374 19.3389C57.611 19.1748 57.7773 18.9515 57.873 18.6689C57.9733 18.3818 58.0234 18.0628 58.0234 17.7119ZM61.2773 10.5H63.2461V19.3047L63.0479 21H61.2773V10.5ZM67.9287 17.2266V17.3701C67.9287 17.9215 67.8695 18.4274 67.751 18.8877C67.637 19.348 67.4593 19.7467 67.2178 20.084C66.9762 20.4167 66.6755 20.6764 66.3154 20.8633C65.96 21.0456 65.5407 21.1367 65.0576 21.1367C64.6064 21.1367 64.2145 21.0456 63.8818 20.8633C63.5537 20.681 63.278 20.4235 63.0547 20.0908C62.8314 19.7581 62.6514 19.3685 62.5146 18.9219C62.3779 18.4753 62.2754 17.9876 62.207 17.459V17.1445C62.2754 16.6159 62.3779 16.1283 62.5146 15.6816C62.6514 15.235 62.8314 14.8454 63.0547 14.5127C63.278 14.18 63.5537 13.9225 63.8818 13.7402C64.21 13.5579 64.5973 13.4668 65.0439 13.4668C65.5316 13.4668 65.9554 13.5602 66.3154 13.7471C66.68 13.9294 66.9808 14.1891 67.2178 14.5264C67.4593 14.859 67.637 15.2555 67.751 15.7158C67.8695 16.1715 67.9287 16.6751 67.9287 17.2266ZM65.96 17.3701V17.2266C65.96 16.9258 65.9372 16.6432 65.8916 16.3789C65.8506 16.11 65.7777 15.8753 65.6729 15.6748C65.568 15.4697 65.4245 15.3079 65.2422 15.1895C65.0645 15.071 64.8343 15.0117 64.5518 15.0117C64.2829 15.0117 64.055 15.0573 63.8682 15.1484C63.6813 15.2396 63.5264 15.3672 63.4033 15.5312C63.2848 15.6953 63.196 15.8913 63.1367 16.1191C63.0775 16.3424 63.041 16.5885 63.0273 16.8574V17.7529C63.041 18.113 63.1003 18.432 63.2051 18.71C63.3145 18.9834 63.4785 19.1999 63.6973 19.3594C63.9206 19.5143 64.21 19.5918 64.5654 19.5918C64.8434 19.5918 65.0736 19.5371 65.2559 19.4277C65.4382 19.3184 65.5794 19.1634 65.6797 18.9629C65.7845 18.7624 65.8574 18.5277 65.8984 18.2588C65.9395 17.9854 65.96 17.6891 65.96 17.3701ZM71.1211 15.1348V21H69.1455V13.6035H70.998L71.1211 15.1348ZM70.8477 17.042H70.3008C70.3008 16.527 70.3623 16.0531 70.4854 15.6201C70.613 15.1826 70.7975 14.8044 71.0391 14.4854C71.2852 14.1618 71.5882 13.9111 71.9482 13.7334C72.3083 13.5557 72.7253 13.4668 73.1992 13.4668C73.5273 13.4668 73.8281 13.5169 74.1016 13.6172C74.375 13.7129 74.6097 13.8656 74.8057 14.0752C75.0062 14.2803 75.1611 14.5492 75.2705 14.8818C75.3799 15.21 75.4346 15.6042 75.4346 16.0645V21H73.4658V16.2832C73.4658 15.946 73.4202 15.6862 73.3291 15.5039C73.238 15.3216 73.1081 15.194 72.9395 15.1211C72.7754 15.0482 72.5771 15.0117 72.3447 15.0117C72.0895 15.0117 71.8662 15.0641 71.6748 15.1689C71.488 15.2738 71.333 15.4196 71.21 15.6064C71.0869 15.7887 70.9958 16.0029 70.9365 16.249C70.8773 16.4951 70.8477 16.7594 70.8477 17.042ZM75.25 16.8164L74.5459 16.9053C74.5459 16.4222 74.6051 15.9733 74.7236 15.5586C74.8467 15.1439 75.0267 14.7793 75.2637 14.4648C75.5052 14.1504 75.8037 13.9066 76.1592 13.7334C76.5146 13.5557 76.9248 13.4668 77.3896 13.4668C77.7451 13.4668 78.0687 13.5192 78.3604 13.624C78.652 13.7243 78.9004 13.8861 79.1055 14.1094C79.3151 14.3281 79.4746 14.6152 79.584 14.9707C79.6979 15.3262 79.7549 15.7614 79.7549 16.2764V21H77.7793V16.2764C77.7793 15.9346 77.7337 15.6748 77.6426 15.4971C77.556 15.3148 77.4284 15.1895 77.2598 15.1211C77.0957 15.0482 76.8997 15.0117 76.6719 15.0117C76.4349 15.0117 76.2275 15.0596 76.0498 15.1553C75.8721 15.2464 75.724 15.374 75.6055 15.5381C75.487 15.7021 75.3981 15.8936 75.3389 16.1123C75.2796 16.3265 75.25 16.5612 75.25 16.8164ZM83.3574 13.6035V21H81.3818V13.6035H83.3574ZM81.2588 11.6758C81.2588 11.3887 81.359 11.1517 81.5596 10.9648C81.7601 10.778 82.029 10.6846 82.3662 10.6846C82.6989 10.6846 82.9655 10.778 83.166 10.9648C83.3711 11.1517 83.4736 11.3887 83.4736 11.6758C83.4736 11.9629 83.3711 12.1999 83.166 12.3867C82.9655 12.5736 82.6989 12.667 82.3662 12.667C82.029 12.667 81.7601 12.5736 81.5596 12.3867C81.359 12.1999 81.2588 11.9629 81.2588 11.6758ZM88.6074 13.6035V14.998H84.3008V13.6035H88.6074ZM85.3672 11.7783H87.3359V18.7715C87.3359 18.9857 87.3633 19.1497 87.418 19.2637C87.4772 19.3776 87.5638 19.4574 87.6777 19.5029C87.7917 19.5439 87.9352 19.5645 88.1084 19.5645C88.2314 19.5645 88.3408 19.5599 88.4365 19.5508C88.5368 19.5371 88.6211 19.5234 88.6895 19.5098L88.6963 20.959C88.5277 21.0137 88.3454 21.057 88.1494 21.0889C87.9535 21.1208 87.737 21.1367 87.5 21.1367C87.0671 21.1367 86.6888 21.0661 86.3652 20.9248C86.0462 20.779 85.8001 20.5465 85.627 20.2275C85.4538 19.9085 85.3672 19.4893 85.3672 18.9697V11.7783Z" fill="#14448B"/>
</g>
<defs>
<filter id="filter0_d_2203_3845" x="0" y="0" width="105" height="34" filterUnits="userSpaceOnUse" color-interpolation-filters="sRGB">
<feFlood flood-opacity="0" result="BackgroundImageFix"/>
<feColorMatrix in="SourceAlpha" type="matrix" values="0 0 0 0 0 0 0 0 0 0 0 0 0 0 0 0 0 0 127 0" result="hardAlpha"/>
<feOffset dy="2"/>
<feColorMatrix type="matrix" values="0 0 0 0 0 0 0 0 0 0 0 0 0 0 0 0 0 0 0.016 0"/>
<feBlend mode="normal" in2="BackgroundImageFix" result="effect1_dropShadow_2203_3845"/>
<feBlend mode="normal" in="SourceGraphic" in2="effect1_dropShadow_2203_3845" result="shape"/>
</filter>
<clipPath id="clip0_2203_3845">
<rect width="20" height="20" fill="white" transform="translate(16 6)"/>
</clipPath>
</defs>
</svg>
